<svg width="1600" height="450" viewBox="0 0 1600 450" fill="none" xmlns="http://www.w3.org/2000/svg">
<g opacity="0.35" filter="url(#filter0_d)">
<path opacity="0.35" d="M1105.63 420.139C1176.41 420.139 1233.78 409.767 1233.78 396.973C1233.78 384.178 1176.41 373.806 1105.63 373.806C1034.85 373.806 977.474 384.178 977.474 396.973C977.474 409.767 1034.85 420.139 1105.63 420.139Z" fill="#7A7A7A"/>
</g>
<path d="M1127.8 31.2887C1128.47 28.5991 1129.33 26.5382 1130.4 25.1058C1131.46 23.6735 1133.21 22.2498 1135.64 20.8346C1138.1 19.4042 1139.69 18.3497 1140.41 17.671C1141.53 16.6377 1142.26 15.4032 1142.62 13.9674C1143.09 12.0665 1142.97 10.5029 1142.27 9.27664C1141.59 8.03516 1140.34 7.18907 1138.52 6.73837C1136.78 6.30771 1135.25 6.45512 1133.93 7.18061C1132.64 7.89089 1131.79 9.08527 1131.37 10.7637L1124 8.93842C1124.93 5.36905 1126.84 2.83836 1129.74 1.34635C1132.67 -0.140646 1136.1 -0.395891 1140.04 0.580614C1144.11 1.58717 1147.02 3.40223 1148.77 6.02579C1150.54 8.65436 1150.97 11.819 1150.06 15.5197C1149.24 18.816 1146.9 21.6811 1143.04 24.1151L1138.4 26.8615C1136.68 28.0477 1135.45 30.0918 1134.69 32.9938L1127.8 31.2887ZM1124.95 40.5948C1125.25 39.4017 1125.86 38.5338 1126.79 37.991C1127.72 37.4281 1128.82 37.3044 1130.1 37.6198C1131.39 37.9403 1132.32 38.5775 1132.88 39.5312C1133.44 40.4647 1133.58 41.5078 1133.29 42.6605C1133.02 43.7727 1132.42 44.6128 1131.51 45.1808C1130.6 45.7487 1129.47 45.8675 1128.14 45.537C1126.8 45.2065 1125.86 44.5769 1125.32 43.6484C1124.8 42.7249 1124.67 41.7071 1124.95 40.5948Z" fill="#DD4B39" fill-opacity="0.87"/>
<path d="M1080.28 398.932C1086.26 394.651 1084.93 386.385 1086.91 372.494C1089 357.946 1090.22 349.522 1095.74 343.851C1106 333.297 1127.42 332.416 1139.9 341.646C1143.22 344.101 1144.98 346.594 1147.53 350.273C1162.12 371.262 1154.82 387.339 1166.1 395.679C1173.24 400.943 1183.75 399.534 1190.25 396.606C1197.39 393.372 1200.95 387.525 1203.25 383.633C1211.09 370.372 1210.06 356.352 1208.82 339.153C1208.15 329.82 1206.91 320.536 1205.11 311.353C1202.12 295.98 1197.57 274.797 1190.67 249.128C1199.58 220.912 1211.95 202.082 1221.82 189.961C1235.56 173.087 1254.55 156.806 1250.28 143.388C1250.02 142.563 1248.42 137.392 1243.65 134.575C1237.31 130.804 1229.35 133.417 1226.01 134.575C1195.76 144.972 1148.62 203.148 1095.76 211.682C1075.07 215.009 1041.83 221.699 1033.94 222.7C1011.33 225.563 1000.02 226.991 998.033 227.037C979.535 227.472 969.951 224.896 963.292 231.513C958.538 236.239 955.761 245.162 958.881 251.343C965.837 265.141 1002.32 263.037 1014.07 262.361C1030.07 261.434 1035.74 260.081 1040.57 264.566C1043.22 267.031 1046.85 272.563 1042.61 301.179C1038.47 329.099 1036.74 327.382 1035.1 343.851C1035.1 345.232 1033.76 375.376 1051.59 392.334C1054.11 394.725 1060.24 400.544 1069.23 401.146C1071.85 401.304 1076.52 401.619 1080.28 398.932Z" fill="#5E4034"/>
<path d="M1181.95 293.663C1186.69 290.577 1191.73 287.973 1197 285.889C1205.18 282.645 1217.6 277.715 1233.44 279.726C1237.38 280.227 1256.43 283.053 1269.72 298.083C1272.85 301.623 1280.43 310.195 1280.49 322.223C1280.49 325.244 1280.55 336.892 1271.02 343.332C1270.8 343.48 1270.47 343.703 1270.09 343.962C1266.07 346.338 1261.43 347.455 1256.77 347.168C1256.17 347.168 1245.19 346.186 1242.69 340.395C1240.83 336.058 1245.47 332.981 1243.05 329.006C1241.52 326.448 1237.95 324.864 1234.78 324.975C1233.43 325.072 1232.11 325.439 1230.91 326.054C1229.7 326.668 1228.63 327.518 1227.77 328.552C1223.12 333.602 1223.87 341.942 1226.4 347.521C1232.46 360.901 1250.94 363.709 1252.21 363.885C1267.19 365.933 1278.06 358.186 1280.8 356.231C1293.38 347.261 1295.9 334.288 1296.59 330.581C1301.23 304.468 1277.51 283.998 1274.3 281.348C1265.85 274.474 1255.99 269.528 1245.42 266.855C1231.28 263.232 1220.64 264.844 1204.64 267.281C1183.67 270.469 1178.43 275.677 1176.32 278.262C1174.03 281.104 1172.46 284.454 1171.74 288.029L1181.95 293.663Z" fill="#5E4034"/>
<path opacity="0.63" d="M1167.48 129.321C1143.08 87.5475 1049.21 85.5273 1023.53 124.781C1013.59 139.987 1014.05 161.143 1014.15 165.201C1014.43 179.898 1018.65 194.252 1026.37 206.771C1029.8 212.136 1034.87 219.865 1044.44 226.092C1056.69 234.07 1068.8 234.701 1081.59 235.358C1093.47 235.863 1105.36 234.614 1116.87 231.652C1130.18 228.297 1140.33 225.74 1150.31 217.752C1170.62 201.48 1173.41 176.117 1174.06 170.242C1174.66 164.886 1176.82 145.315 1167.48 129.321Z" fill="#3A251D"/>
<path d="M1009.09 136.456C1006.03 135.775 1002.87 135.731 999.798 136.326C987.048 138.865 981.792 151.913 981.476 152.728C979.285 158.657 979.18 165.154 981.179 171.15C981.745 172.92 986.147 185.81 999.455 189.831C1006.09 191.72 1013.19 191.137 1019.43 188.191L1009.09 136.456Z" fill="#5E4034"/>
<path d="M1007.43 146.723C1004.7 145.794 1001.75 145.703 998.962 146.464C990.651 148.873 988.552 158.511 988.431 159.067C987.876 162.098 988.107 165.221 989.1 168.138C991.329 174.746 996.715 178.082 999.464 179.777C1005 183.113 1011.44 184.669 1017.9 184.235L1007.43 146.723Z" fill="#F4C6A3"/>
<path d="M1158.67 111.603C1161.34 109.974 1164.31 108.911 1167.41 108.481C1180.3 106.757 1189.5 117.414 1190.07 118.081C1194.07 122.981 1196.27 129.092 1196.33 135.409C1196.33 137.263 1196.39 150.884 1185.1 158.983C1179.44 162.904 1172.55 164.643 1165.7 163.876L1158.67 111.603Z" fill="#5E4034"/>
<path d="M1163.59 120.777C1165.87 119.015 1168.63 117.976 1171.51 117.793C1180.15 117.386 1185.27 125.809 1185.56 126.319C1187.07 129.009 1187.86 132.039 1187.87 135.122C1187.87 142.09 1183.89 146.992 1181.84 149.485C1177.69 154.439 1172.1 157.997 1165.85 159.678L1163.59 120.777Z" fill="#F4C6A3"/>
<path d="M1159.59 105.691C1137.83 76.0379 1105.31 69.4031 1096.95 67.9946C1088.55 66.594 1080.02 66.2825 1071.55 67.0679C1063.7 69.4264 1056.18 72.7443 1049.15 76.9461C1041.14 81.7554 1013.86 99.7418 1004.45 134.714C1000.66 148.609 1000.34 163.22 1003.52 177.266C1005.58 185.717 1009.89 203.435 1026.01 215.926C1038.51 225.628 1051.9 227.268 1061.95 228.501C1075.88 230.215 1086.28 228.297 1101.53 225.461C1116.78 222.626 1127.47 220.643 1140.06 213.878C1149.04 209.06 1160.87 202.712 1169 189.173C1179.48 171.706 1177.06 153.636 1175.91 145.018C1173.78 130.775 1168.17 117.271 1159.59 105.691Z" fill="#5E4034"/>
<path d="M1074.5 73.601C1072.64 73.0821 1069.98 72.2851 1066.78 71.1917C1058 68.1986 1056.7 66.8642 1056 65.5484C1054.8 63.2966 1054.76 59.9884 1056.49 58.0702C1058.79 55.5405 1063.92 55.698 1066.71 57.8942C1069.73 60.2479 1068.67 63.8248 1073.09 71.3863C1073.67 72.35 1074.22 73.1191 1074.5 73.601Z" fill="#5E4034"/>
<path d="M1074.59 71.8311C1075.31 71.9979 1075.83 70.9044 1078.31 66.7623C1083.37 58.1629 1083.6 58.2 1084.42 56.0872C1086.08 51.7505 1087.48 48.1087 1085.68 45.4862C1085.01 44.5394 1084.14 43.7419 1083.15 43.1439C1082.15 42.5458 1081.04 42.1602 1079.89 42.0113H1079.64C1076.43 41.826 1073.65 43.948 1072.21 46.589C1070.76 49.2299 1070.97 52.5566 1071.54 58.9598C1071.96 63.8155 1072.64 71.3863 1074.59 71.8311Z" fill="#5E4034"/>
<path d="M1155.56 140.534C1154.33 136.373 1151.3 126.55 1142.69 117.942C1140.71 115.959 1124.05 99.7423 1108.46 105.293C1099.92 108.342 1094.61 116.876 1089.6 124.975C1088.1 127.412 1086.65 130.266 1086.65 130.266C1085.58 132.333 1084.93 133.797 1084.65 134.427C1084.28 135.28 1083.97 136.012 1083.72 136.558C1083.31 136.197 1082.79 135.724 1082.12 135.187C1080.81 134.084 1079.78 133.334 1079.24 132.87C1076.77 131.017 1074.04 129.08 1073.29 128.58C1064.93 123.02 1056.44 116.978 1048.32 117.71C1033.27 119.072 1025.1 138.319 1023.45 142.155C1019.94 150.74 1018.66 160.07 1019.74 169.279C1020.18 174.032 1021.86 189.489 1033.52 202.323C1041.6 211.21 1050.49 214.453 1057.46 216.899C1071.15 221.579 1085.9 222.197 1099.94 218.679C1114.06 216.193 1127.2 209.768 1137.82 200.146C1143.02 195.383 1149.95 188.868 1154.31 177.452C1160.93 160.077 1156.66 144.231 1155.56 140.534Z" fill="#F4C6A3"/>
<path opacity="0.96" d="M1090.19 163.7C1074.9 166.137 1065.12 178.526 1062.64 181.946C1052.09 196.383 1053.26 211.905 1053.67 215.76C1061.38 218.614 1079.23 224.035 1100.39 219.272C1119.04 215.074 1132.14 204.797 1136.88 200.998C1138.62 199.599 1140.03 198.375 1141 197.495C1130.68 174.088 1109.24 160.623 1090.19 163.7Z" fill="#F9E4C7"/>
<path d="M1058.84 172.191C1063.46 171.424 1066.33 165.605 1065.27 159.193C1064.2 152.782 1059.58 148.206 1054.97 148.973C1050.35 149.741 1047.47 155.56 1048.54 161.971C1049.61 168.383 1054.22 172.958 1058.84 172.191Z" fill="#140000"/>
<path d="M1059.19 159.594C1060.44 159.387 1061.27 158.097 1061.03 156.714C1060.8 155.331 1059.6 154.378 1058.35 154.585C1057.1 154.793 1056.28 156.082 1056.51 157.466C1056.74 158.849 1057.94 159.802 1059.19 159.594Z" fill="white"/>
<path d="M1126.84 147.094C1128.6 153.349 1126.37 159.446 1121.87 160.707C1117.37 161.967 1112.28 157.927 1110.51 151.653C1108.75 145.38 1110.98 139.301 1115.48 138.041C1119.98 136.78 1125.07 140.839 1126.84 147.094Z" fill="#140000"/>
<path d="M1120.13 147.884C1121.33 147.549 1122 146.191 1121.62 144.85C1121.24 143.51 1119.97 142.695 1118.76 143.03C1117.56 143.365 1116.9 144.724 1117.27 146.064C1117.65 147.405 1118.93 148.22 1120.13 147.884Z" fill="white"/>
<path d="M1092.9 183.613C1092.17 184.864 1089.33 184.596 1086.56 183.011C1083.79 181.427 1082.14 179.119 1082.85 177.868C1083.55 176.617 1086.42 176.886 1089.19 178.471C1091.96 180.055 1093.64 182.353 1092.9 183.613Z" fill="#140000"/>
<path d="M1097.35 183.114C1096.15 182.187 1096.86 179.286 1098.95 176.72C1101.04 174.153 1103.71 172.855 1104.92 173.819C1106.13 174.783 1105.41 177.646 1103.32 180.213C1101.23 182.78 1098.56 184.087 1097.35 183.114Z" fill="#140000"/>
<path d="M1091.16 204.297C1092.33 202.929 1093.79 201.84 1095.43 201.109C1097.62 200.085 1100.02 199.582 1102.44 199.64C1104.85 199.698 1107.22 200.315 1109.36 201.442C1110.38 202.008 1111.71 202.962 1111.55 203.296C1111.32 203.852 1107.97 202.276 1103.19 202.212C1100.25 202.024 1097.32 202.616 1094.68 203.926C1091.03 205.918 1089.58 209.05 1089.11 208.772C1088.63 208.494 1089.61 206.196 1091.16 204.297Z" fill="#140000"/>
<path d="M1153.63 309.862C1144.41 324.178 1127.91 327.626 1124.72 328.228C1122.03 328.738 1103.36 331.935 1089.24 320.361C1069.81 304.45 1073.25 272.434 1084.08 254.086C1087.04 249.091 1094.12 237.101 1107.63 234.321C1121.62 231.448 1133.27 240.335 1137.02 243.179C1155.48 257.265 1167.45 288.419 1153.63 309.862Z" fill="#F4C6A3"/>
<path opacity="0.96" d="M1104.11 243.448C1102.11 242.336 1073.46 268.922 1080.99 295.257C1086.32 314.004 1107.6 324.382 1110.01 322.13C1112.43 319.879 1095.42 307.035 1093.05 284.582C1090.57 261.184 1105.65 244.31 1104.11 243.448Z" fill="#F9E4C7"/>
<path opacity="0.81" d="M1116.42 290.967C1118.73 290.967 1120.6 289.515 1120.6 287.724C1120.6 285.932 1118.73 284.48 1116.42 284.48C1114.11 284.48 1112.24 285.932 1112.24 287.724C1112.24 289.515 1114.11 290.967 1116.42 290.967Z" fill="#140000"/>
<path d="M985.014 227.028C981.318 226.498 977.565 226.498 973.87 227.028C969.969 227.593 967.369 227.954 964.583 229.808C958.315 233.996 957.507 241.706 957.414 242.781C956.999 245.96 957.555 249.19 959.011 252.047C962.484 258.441 970.155 260.22 974.798 261.314C977.236 261.881 979.726 262.192 982.228 262.241L980.993 256.801L982.738 255.068L975.783 246.367L982.757 242.901C980.41 241.104 978.604 238.696 977.538 235.942C978.392 235.154 979.275 234.293 980.157 233.338C981.962 231.384 983.588 229.272 985.014 227.028Z" fill="#F4C6A3"/>
<path d="M1213.46 140.849C1216.16 138.068 1219.35 135.815 1222.87 134.205C1225.33 133.009 1227.96 132.217 1230.67 131.86C1232.38 131.665 1242.09 130.553 1247.82 137.142C1254.33 144.657 1250.14 155.749 1249.49 157.371C1247.78 161.511 1244.96 165.095 1241.32 167.722L1238.01 162.949L1235.56 162.43L1234.89 150.921L1227.4 151.848C1227.66 150.43 1227.73 148.985 1227.62 147.548C1227.49 145.94 1227.15 144.354 1226.61 142.832C1225.43 142.554 1224.19 142.294 1222.9 142.053C1219.78 141.468 1216.63 141.066 1213.46 140.849Z" fill="#F4C6A3"/>
<path d="M1206.03 378.999C1204.25 384.384 1201.04 389.187 1196.75 392.899C1193.1 396.221 1188.6 398.467 1183.75 399.386C1181.82 399.719 1170.36 401.739 1163.32 393.826C1159.04 389.026 1158.67 383.151 1158.67 380.853C1160.64 382.372 1172.71 391.37 1188.39 388.266C1195.03 386.901 1201.15 383.689 1206.03 378.999Z" fill="#F4C6A3"/>
<path d="M1044.45 383.633C1046.23 389.017 1049.44 393.82 1053.73 397.532C1057.38 400.854 1061.88 403.1 1066.74 404.019C1067.11 404.084 1067.4 404.139 1067.84 404.195C1068.77 404.316 1076.78 405.122 1081.59 399.386C1085.72 394.447 1085.75 387.76 1085.58 386.879C1079.13 391.51 1069.96 393.96 1062.09 392.899C1055.34 391.859 1049.13 388.598 1044.45 383.633Z" fill="#F4C6A3"/>
<path d="M1133.6 126.949C1136.82 136.215 1132.92 139.922 1136.39 144.555C1138.84 147.808 1143.75 149.856 1146.6 148.262C1149.04 146.89 1149.29 143.156 1149.39 141.775C1150.05 131.628 1139.17 124.243 1136.39 122.315C1135.14 121.472 1132.58 119.749 1131.74 120.462C1130.91 121.176 1132.48 123.733 1133.6 126.949Z" fill="#BBE8F2"/>
<path opacity="0.5" d="M1140.1 136.215C1139.67 136.215 1138.68 138.115 1139.17 139.922C1139.66 141.729 1141.62 142.961 1141.96 142.702C1142.29 142.442 1141.61 141.831 1141.03 139.922C1140.29 137.457 1140.44 136.252 1140.1 136.215Z" fill="white"/>
<g filter="url(#filter1_d)">
<path d="M-9 347.119C4.196 348.156 240.442 350.921 265.358 352.126C353.947 352.126 418.362 352.126 506.81 352.126C506.81 352.126 569.56 346.483 687.899 356.759C693.164 357.213 702.274 358.279 702.757 361.393C703.212 364.284 696.034 367.611 693.471 368.806C664.859 382.103 591.82 380.973 590.389 387.339C589.544 391.046 612.519 401.674 656.324 413.285C692.96 422.997 734.814 433.802 792.837 434.599C822.684 435.006 855.401 435.368 894.061 423.479C914.491 417.205 934.17 411.145 954.368 393.826C964.398 385.226 983.454 368.426 991.514 339.153C993.669 331.332 1000.89 303.365 986.871 272.434C973.034 241.854 947.626 228.631 940.438 225.174L953.439 222.394C963.256 227.975 972.049 235.182 979.442 243.707C1010.47 279.662 1003.59 325.457 1002.66 330.813C997.365 362.421 979.34 382.317 972.941 389.192C959.513 403.62 946.177 410.607 933.993 416.992C899.243 435.201 866.09 438.731 841.127 441.085C802.124 444.792 772.713 442.355 747.333 440.158C678.705 434.219 639.293 420.439 621.035 413.285C607.765 408.087 568.965 392.899 570.888 382.706C572.327 375.116 596.036 372.726 634.965 368.806C660.967 366.183 677.683 366.026 677.683 365.099C677.683 364.173 658.349 362.514 598.747 361.393C503.198 359.595 443.067 360.605 378.655 362.319C339.651 363.357 67.1501 362.501 -2.499 359.165L-9 347.119Z" fill="#767676"/>
</g>
<path d="M946.122 228.139L953.44 222.394L954.619 223.089L947.292 228.825L946.122 228.139Z" fill="#707070"/>
<path d="M933.148 224.943L915.058 207.623C914.702 207.283 914.496 206.815 914.486 206.324C914.475 205.832 914.661 205.356 915.002 205.001C915.343 204.646 915.812 204.44 916.305 204.43C916.798 204.42 917.274 204.605 917.63 204.945L935.721 222.265C935.897 222.433 936.038 222.635 936.136 222.858C936.234 223.081 936.288 223.321 936.293 223.564C936.298 223.808 936.255 224.05 936.166 224.277C936.078 224.504 935.945 224.711 935.776 224.887C935.607 225.063 935.405 225.204 935.182 225.302C934.958 225.4 934.718 225.453 934.474 225.458C934.23 225.463 933.987 225.42 933.76 225.332C933.532 225.243 933.324 225.111 933.148 224.943Z" fill="#5C5C5C"/>
<path d="M948.032 209.68L929.734 192.157C928.993 191.449 927.818 191.473 927.107 192.211C926.397 192.95 926.421 194.123 927.162 194.832L945.46 212.354C946.201 213.063 947.376 213.039 948.087 212.3C948.797 211.562 948.773 210.389 948.032 209.68Z" fill="#5C5C5C"/>
<path d="M944.153 193.668C937.652 204.788 927.53 212.247 918.522 221.607L932.99 235.507C933.864 236.626 935.127 237.377 936.529 237.61C937.253 237.713 937.991 237.651 938.688 237.428C939.384 237.205 940.021 236.827 940.55 236.322L960.479 215.593C961.3 214.404 961.696 212.974 961.602 211.534C961.501 210.034 960.94 208.601 959.996 207.429C955.176 202.768 949.725 198.301 944.153 193.668Z" fill="#5C5C5C"/>
<path d="M944.608 193.529L917.603 221.607L932.071 235.507C932.945 236.626 934.208 237.377 935.61 237.61C936.334 237.713 937.072 237.651 937.769 237.428C938.465 237.205 939.102 236.827 939.631 236.322L959.56 215.593C960.381 214.404 960.777 212.974 960.683 211.534C960.582 210.034 960.021 208.601 959.077 207.429L944.608 193.529Z" fill="#767676"/>
<path d="M931.827 208.268C939.285 200.514 945.006 193.917 944.606 193.535C944.207 193.152 937.837 199.128 930.38 206.882C922.922 214.637 917.201 221.233 917.6 221.616C918 221.999 924.37 216.023 931.827 208.268Z" fill="#5C5C5C"/>
<path d="M948.318 208.655L930.019 191.132C929.279 190.424 928.103 190.448 927.393 191.186C926.683 191.925 926.707 193.098 927.447 193.807L945.746 211.329C946.486 212.038 947.662 212.014 948.372 211.275C949.083 210.537 949.058 209.363 948.318 208.655Z" fill="#767676"/>
<path d="M936.106 221.366L917.807 203.843C917.067 203.135 915.891 203.159 915.181 203.897C914.47 204.636 914.495 205.809 915.235 206.518L933.534 224.04C934.274 224.749 935.45 224.725 936.16 223.986C936.87 223.248 936.846 222.075 936.106 221.366Z" fill="#767676"/>
<g filter="url(#filter2_d)">
<path d="M1237.85 104.143L1249.11 109.481C1247.06 112.49 1245.18 115.612 1243.48 118.831C1239.83 125.744 1230.06 144.23 1233.05 161.596C1235.23 174.245 1243.59 182.974 1250.7 189.396C1290.01 224.914 1353.95 246.848 1359.35 248.702C1409.56 265.595 1440.14 275.899 1487.51 284.841C1524.29 291.798 1588.59 298.944 1626 300.57V309.92C1621.94 309.734 1591.98 306.312 1584.26 306.312C1584.26 306.312 1574.11 305.728 1565.18 305.08C1519.19 301.725 1465.22 290.401 1465.22 290.401C1442.46 285.629 1405.91 277.817 1361.21 261.675C1337.33 253.135 1314.2 242.628 1292.07 230.261C1283.41 225.386 1275.02 220.053 1266.93 214.286C1251.44 203.296 1234.96 191.564 1226.6 172.901C1223.35 165.636 1218.13 150.161 1224.74 129.506L1237.85 104.143Z" fill="#767676"/>
</g>
<path d="M1283.1 85.2397L1283.43 84.5447C1274.55 84.5889 1265.78 82.588 1257.8 78.6975C1246.36 73.3136 1237.67 65.2795 1233.31 57.0693C1232.6 58.3049 1231.94 59.5682 1231.32 60.8594C1222.29 79.9763 1226.55 100.937 1240.85 107.665C1255.15 114.392 1274.06 104.357 1283.1 85.2397Z" fill="#5C5C5C"/>
<path d="M1285.96 85.3415L1286.28 84.6465C1277.97 84.5724 1268.38 82.3206 1258.91 77.8078C1246.63 71.9513 1237.18 63.5187 1232.35 55.0583C1231.64 56.2939 1230.96 57.5449 1230.34 58.8113C1221.24 77.8078 1226.32 99.1487 1241.67 106.469C1257.02 113.79 1276.82 104.338 1285.96 85.3415Z" fill="#767676"/>
<path d="M1286.62 83.8165C1289.99 76.7837 1280.27 65.1459 1264.91 57.8225C1249.55 50.4992 1234.37 50.2636 1231 57.2964C1227.63 64.3291 1237.36 75.967 1252.72 83.2903C1268.07 90.6137 1283.26 90.8492 1286.62 83.8165Z" fill="#5C5C5C"/>
<path d="M1253.37 63.2806L1250.77 61.7934C1250.1 61.4095 1249.25 61.6398 1248.87 62.3077L1248.37 63.1703C1247.98 63.8382 1248.21 64.6907 1248.88 65.0746L1251.48 66.5618C1252.15 66.9457 1253 66.7154 1253.39 66.0476L1253.88 65.1849C1254.27 64.5171 1254.04 63.6645 1253.37 63.2806Z" fill="#7F7F7F"/>
<path d="M1273.11 73.7081L1270.52 72.2209C1269.85 71.837 1268.99 72.0673 1268.61 72.7352L1268.11 73.5978C1267.73 74.2657 1267.96 75.1182 1268.63 75.5021L1271.22 76.9893C1271.89 77.3732 1272.75 77.1429 1273.13 76.475L1273.63 75.6124C1274.01 74.9445 1273.78 74.092 1273.11 73.7081Z" fill="#7F7F7F"/>
<defs>
<filter id="filter0_d" x="969.474" y="369.806" width="272.306" height="62.333" filterUnits="userSpaceOnUse" color-interpolation-filters="sRGB">
<feFlood flood-opacity="0" result="BackgroundImageFix"/>
<feColorMatrix in="SourceAlpha" type="matrix" values="0 0 0 0 0 0 0 0 0 0 0 0 0 0 0 0 0 0 127 0"/>
<feOffset dy="4"/>
<feGaussianBlur stdDeviation="4"/>
<feColorMatrix type="matrix" values="0 0 0 0 0 0 0 0 0 0 0 0 0 0 0 0 0 0 0.25 0"/>
<feBlend mode="normal" in2="BackgroundImageFix" result="effect1_dropShadow"/>
<feBlend mode="normal" in="SourceGraphic" in2="effect1_dropShadow" result="shape"/>
</filter>
<filter id="filter1_d" x="-13" y="220.394" width="1020.95" height="228.606" filterUnits="userSpaceOnUse" color-interpolation-filters="sRGB">
<feFlood flood-opacity="0" result="BackgroundImageFix"/>
<feColorMatrix in="SourceAlpha" type="matrix" values="0 0 0 0 0 0 0 0 0 0 0 0 0 0 0 0 0 0 127 0"/>
<feOffset dy="2"/>
<feGaussianBlur stdDeviation="2"/>
<feColorMatrix type="matrix" values="0 0 0 0 0 0 0 0 0 0 0 0 0 0 0 0 0 0 0.25 0"/>
<feBlend mode="normal" in2="BackgroundImageFix" result="effect1_dropShadow"/>
<feBlend mode="normal" in="SourceGraphic" in2="effect1_dropShadow" result="shape"/>
</filter>
<filter id="filter2_d" x="1217.56" y="102.143" width="412.445" height="213.777" filterUnits="userSpaceOnUse" color-interpolation-filters="sRGB">
<feFlood flood-opacity="0" result="BackgroundImageFix"/>
<feColorMatrix in="SourceAlpha" type="matrix" values="0 0 0 0 0 0 0 0 0 0 0 0 0 0 0 0 0 0 127 0"/>
<feOffset dy="2"/>
<feGaussianBlur stdDeviation="2"/>
<feColorMatrix type="matrix" values="0 0 0 0 0 0 0 0 0 0 0 0 0 0 0 0 0 0 0.25 0"/>
<feBlend mode="normal" in2="BackgroundImageFix" result="effect1_dropShadow"/>
<feBlend mode="normal" in="SourceGraphic" in2="effect1_dropShadow" result="shape"/>
</filter>
</defs>
</svg>
