<svg width="24" height="25" viewBox="0 0 24 25" fill="none" xmlns="http://www.w3.org/2000/svg">
<path d="M19.6667 3.33335H18.5V1H16.1667V3.33335H6.83334V1H4.49999V3.33335H3.33335C2.0442 3.33335 1.0117 4.37749 1.0117 5.66669L1 21.9999C1 23.2891 2.04415 24.3333 3.33335 24.3333H19.6667C20.9558 24.3333 22 23.2891 22 21.9999V5.66664C21.9999 4.37749 20.9558 3.33335 19.6667 3.33335ZM19.6667 21.9999H3.33335V9.16663H19.6667V21.9999Z" fill="#00BCD4"/>
<path d="M16.785 12.7366L15.5483 11.5L9.85501 17.1933L7.38172 14.72L6.14502 15.9566L9.85501 19.6666L16.785 12.7366Z" fill="#00BCD4"/>
</svg>
