<svg width="24" height="25" viewBox="0 0 24 25" fill="none" xmlns="http://www.w3.org/2000/svg">
<path d="M11.2687 9.22037C10.96 8.92787 10.458 8.92637 10.1477 9.21887L7.54154 11.6894L6.5187 10.7189C6.20995 10.4264 5.70804 10.4264 5.39929 10.7189C5.09054 11.0114 5.09054 11.4869 5.39929 11.7794L6.98262 13.2794C7.1362 13.4264 7.33887 13.4999 7.54154 13.4999C7.7442 13.4999 7.94687 13.4264 8.10204 13.2809L11.2687 10.2809C11.5775 9.98837 11.5775 9.51287 11.2687 9.22037Z" fill="#00BCD4"/>
<path d="M11.2687 15.2206C10.96 14.9281 10.458 14.9266 10.1477 15.2191L7.54154 17.6896L6.5187 16.7206C6.20995 16.4281 5.70804 16.4281 5.39929 16.7206C5.09054 17.0131 5.09054 17.4886 5.39929 17.7811L6.98262 19.2811C7.1362 19.4266 7.33887 19.5001 7.54154 19.5001C7.7442 19.5001 7.94687 19.4266 8.10204 19.2811L11.2687 16.2811C11.5775 15.9886 11.5775 15.5131 11.2687 15.2206Z" fill="#00BCD4"/>
<path d="M17.0418 10.5H13.8752C13.4382 10.5 13.0835 10.836 13.0835 11.25C13.0835 11.664 13.4382 12 13.8752 12H17.0418C17.4788 12 17.8335 11.664 17.8335 11.25C17.8335 10.836 17.4788 10.5 17.0418 10.5Z" fill="#00BCD4"/>
<path d="M17.0418 16.5H13.8752C13.4382 16.5 13.0835 16.836 13.0835 17.25C13.0835 17.664 13.4382 18 13.8752 18H17.0418C17.4788 18 17.8335 17.664 17.8335 17.25C17.8335 16.836 17.4788 16.5 17.0418 16.5Z" fill="#00BCD4"/>
<path d="M19.4167 3H16.25V2.25C16.25 1.836 15.8953 1.5 15.4583 1.5H13.7404C13.4127 0.627 12.5323 0 11.5 0C10.4677 0 9.58733 0.627 9.25958 1.5H7.54167C7.10467 1.5 6.75 1.836 6.75 2.25V3H3.58333C2.71092 3 2 3.6735 2 4.5V22.5C2 23.3265 2.71092 24 3.58333 24H19.4167C20.2891 24 21 23.3265 21 22.5V4.5C21 3.6735 20.2891 3 19.4167 3ZM8.33333 3H9.91667C10.3537 3 10.7083 2.664 10.7083 2.25C10.7083 1.836 11.063 1.5 11.5 1.5C11.937 1.5 12.2917 1.836 12.2917 2.25C12.2917 2.664 12.6463 3 13.0833 3H14.6667V4.5H8.33333V3ZM19.4167 22.5H3.58333V4.5H6.75V5.25C6.75 5.664 7.10467 6 7.54167 6H15.4583C15.8953 6 16.25 5.664 16.25 5.25V4.5H19.4167V22.5Z" fill="#00BCD4"/>
</svg>
