  <svg width="19" height="19" viewBox="0 0 24 24" fill="none" xmlns="http://www.w3.org/2000/svg">
    <path
      d="M23.2967 22.5936C5.12011 22.5936 5.25483 22.5936 0.703125 22.5936C0.314484 22.5936 0 22.9081 0 23.2968C0 23.6854 0.314484 23.9999 0.703125 23.9999H23.2967C23.6854 23.9999 23.9999 23.6854 23.9999 23.2968C23.9999 22.9081 23.6854 22.5936 23.2967 22.5936Z"
      fill="#00BCD4"
    />
    <path
      d="M6.42183 15.5624H2.10938C1.72073 15.5624 1.40625 15.8769 1.40625 16.2655V21.1874H7.12495V16.2655C7.12495 15.8769 6.81047 15.5624 6.42183 15.5624Z"
      fill="#00BCD4"
    />
    <path
      d="M13.4531 11.3437H9.23438C8.84573 11.3437 8.53125 11.6582 8.53125 12.0468V21.1874H14.1562V12.0468C14.1563 11.6582 13.8418 11.3437 13.4531 11.3437Z"
      fill="#00BCD4"
    />
    <path
      d="M23.7939 5.83094L18.872 0.205981C18.5974 -0.0686602 18.1524 -0.0686602 17.8778 0.205981L12.9559 5.83094C12.7547 6.03212 12.6943 6.33423 12.8035 6.59725C12.9119 6.86022 13.1688 7.03122 13.453 7.03122H15.5624V21.1874H21.1874V7.03122H23.2968C23.581 7.03122 23.8378 6.86026 23.9463 6.59725C24.0555 6.33428 23.9951 6.03212 23.7939 5.83094Z"
      fill="#00BCD4"
    />
  </svg>