  <svg width="19" height="23" viewBox="0 0 19 23" fill="none" xmlns="http://www.w3.org/2000/svg">
    <path
      d="M9.5 22.3529C10.7294 22.3529 11.7353 21.3471 11.7353 20.1176H7.26471C7.26471 21.3471 8.27059 22.3529 9.5 22.3529ZM16.7647 15.6471V9.5C16.7647 6.03529 14.4176 3.24118 11.1765 2.45882V1.67647C11.1765 0.782353 10.3941 0 9.5 0C8.60588 0 7.82353 0.782353 7.82353 1.67647V2.45882C4.58235 3.24118 2.23529 6.03529 2.23529 9.5V15.6471L0 17.8824V19H19V17.8824L16.7647 15.6471ZM14.5294 16.7647H4.47059V9.5C4.47059 6.70588 6.70588 4.47059 9.5 4.47059C12.2941 4.47059 14.5294 6.70588 14.5294 9.5V16.7647Z"
      fill="#00BCD4"
    />
  </svg>