<svg width="300" height="300" fill="none" xmlns="http://www.w3.org/2000/svg"><path fill="none" d="M6.31 0l293.523 6.34-6.31 292.173L0 292.173z"/><path fill="none" d="M162.136 3.365L299.834 6.34l-2.957 136.906-137.698-2.974z"/><path fill="none" d="M161.322 110.154l28.84.623-.627 29.013-28.84-.623z"/><path fill="none" d="M167.152 110.28l23.009.497-.502 23.222-23.009-.496z"/><path fill="none" d="M190.16 110.777l-23.009-.497-.501 23.223 23.008.497z"/><path d="M185.127 133.902l2.44.052 2.144-2.381-20.467-21.247-2.144 2.381-.045 2.079 18.072 19.116z" fill="#90A4AE"/><path fill="none" d="M161.222 114.781l12.811.277-.275 12.75-12.811-.276z"/><path fill="none" d="M173.932 119.716l-4.581-4.76-8.304 7.918 4.58 4.76z"/><path d="M169.351 114.956l4.581 4.76-8.304 7.917-4.581-4.759 8.304-7.918z" fill="#90A4AE"/><path fill="none" d="M172.381 126.662l12.809.277-.275 12.753-12.81-.277z"/><path fill="none" d="M185.091 131.596l-4.583-4.758-8.302 7.92 4.583 4.758z"/><path d="M180.508 126.838l4.583 4.758-8.302 7.919-4.583-4.758 8.302-7.919z" fill="#90A4AE"/><path fill="none" d="M162.136 3.365L299.834 6.34l-2.957 136.906-137.698-2.974z"/><path fill="none" d="M299.834 6.339L162.136 3.365l-2.957 136.906 137.698 2.974z"/><path d="M196.828 141.085l2.092.045 100.061-95.279.052-2.426-36.499-37.892-2.092-.045-100.409 95.272-.053 2.426 36.848 37.899z" fill="#CFD8DC"/><g><path fill="none" d="M171.034 11.192l121.314 2.62-2.605 120.6-121.314-2.62z"/><path fill="none" d="M180.39 21.843l101.258 2.187-2.176 100.78-101.259-2.187z"/><path fill="none" d="M281.6 26.236l-2.17-2.255-101.17 96.434 2.17 2.256z"/><path d="M279.431 23.982l2.169 2.254-101.169 96.434-2.17-2.254 101.17-96.434z" fill="#CFD8DC"/><path fill="none" d="M252.607 12.954l39.74.858-.853 39.513-39.74-.858z"/><path fill="none" d="M292.348 13.813l-39.74-.859-.854 39.513 39.74.858z"/><path d="M290.1 53.295l1.424-1.356-37.871-38.962-1.069 1.017L290.1 53.295z" fill="#CFD8DC"/><path fill="none" d="M244.07 20.752l39.74.858-.853 39.513-39.74-.859z"/><path fill="none" d="M283.811 21.61l-39.74-.858-.854 39.512 39.74.859z"/><path d="M281.912 61.1l1.068-1.017-37.515-39.301-1.425 1.356L281.912 61.1z" fill="#CFD8DC"/><path fill="none" d="M235.293 28.691l40.273.87-.868 40.195-40.273-.87z"/><path fill="none" d="M274.738 67.873l-37.547-39.14-1.94 1.843 37.547 39.14z"/><path d="M237.192 28.733l37.546 39.14-1.26 1.197-37.546-39.14 1.26-1.197z" fill="#CFD8DC"/><g><path fill="none" d="M226.873 36.924l40.329.87-.867 40.14-40.329-.872z"/><path fill="none" d="M266.376 76.047l-37.608-39.082-1.937 1.846 37.608 39.082z"/><path d="M228.768 36.965l37.608 39.082-1.258 1.2-37.608-39.083 1.258-1.2z" fill="#CFD8DC"/></g><g><path fill="none" d="M219.142 44.479l39.74.858-.853 39.513-39.74-.858z"/><path fill="none" d="M258.883 45.337l-39.74-.858-.854 39.513 39.74.858z"/><path d="M256.983 84.827l1.069-1.017-37.516-39.3-1.424 1.355 37.871 38.962z" fill="#CFD8DC"/></g><g><path fill="none" d="M210.372 52.584l40.329.871-.867 40.14-40.329-.872z"/><path fill="none" d="M249.875 91.707l-37.608-39.082-1.937 1.847 37.608 39.082z"/><path d="M212.267 52.625l37.608 39.082-1.258 1.2-37.608-39.082 1.258-1.2z" fill="#CFD8DC"/></g><g><path fill="none" d="M202.407 60.401l39.74.859-.853 39.512-39.74-.858z"/><path fill="none" d="M242.148 61.26l-39.74-.858-.854 39.512 39.74.859z"/><path d="M240.249 100.75l1.068-1.017-37.515-39.301-1.425 1.356 37.872 38.962z" fill="#CFD8DC"/></g><g><path fill="none" d="M194.209 68.553l39.74.858-.853 39.513-39.74-.858z"/><path fill="none" d="M233.949 69.412l-39.74-.859-.854 39.513 39.74.858z"/><path d="M231.702 108.894l1.424-1.356-37.872-38.962-1.068 1.017 37.516 39.301z" fill="#CFD8DC"/></g><g><path fill="none" d="M184.99 76.415l40.335.871-.867 40.135-40.335-.871z"/><path fill="none" d="M224.499 115.533l-37.613-39.077-1.937 1.847 37.613 39.077z"/><path d="M186.886 76.456l37.613 39.077-1.258 1.2-37.613-39.077 1.258-1.2z" fill="#CFD8DC"/></g><g><path fill="none" d="M176.81 84.402l40.433.874-.865 40.036-40.433-.873z"/><path fill="none" d="M216.419 123.42l-37.72-38.97-1.931 1.852 37.72 38.97z"/><path d="M178.7 84.443l37.719 38.977-1.255 1.203-37.719-38.977 1.255-1.203z" fill="#CFD8DC"/></g><g><path fill="none" d="M169.283 92.28l39.393.851-.854 39.513-39.392-.85z"/><path fill="none" d="M208.675 93.13l-39.393-.85-.853 39.513 39.393.85z"/><path d="M206.776 132.621l1.068-1.017-37.515-39.301-1.068 1.017 37.515 39.301z" fill="#CFD8DC"/></g></g><g><path fill="none" d="M163.841 5.137l134.56 2.906-2.881 133.447-134.561-2.906z"/><path fill="none" d="M163.678 12.7l126.674 2.736-2.718 125.883-126.675-2.736z"/><path fill="none" d="M212.866 46.062l24.386.526-.524 24.28-24.386-.526z"/><path fill="none" d="M236.876 64.005l-17.11-17.795-7.05 6.715 17.11 17.795z"/><path d="M219.767 46.21l17.109 17.795-7.05 6.714-17.108-17.794 7.049-6.714z" fill="#0D47A1"/><path fill="none" d="M232.293 66.21l24.388.527-.524 24.278-24.388-.526z"/><path fill="none" d="M256.305 84.151L239.193 66.36l-7.05 6.715 17.113 17.793z"/><path d="M239.194 66.36l17.111 17.791-7.049 6.715-17.111-17.792 7.049-6.715z" fill="#0D47A1"/><path fill="none" d="M229.362 30.413l24.394.527-.524 24.272-24.394-.527z"/><path fill="none" d="M253.379 48.345l-17.122-17.783-7.045 6.719 17.122 17.783z"/><path d="M236.258 30.562l17.121 17.783-7.044 6.718-17.122-17.782 7.045-6.719z" fill="#0D47A1"/><path fill="none" d="M265.535 34.712l24.39.527-.524 24.276-24.39-.526z"/><path fill="none" d="M289.55 52.649L272.433 34.86l-7.047 6.717 17.117 17.788z"/><path d="M272.433 34.861L289.55 52.65l-7.047 6.717-17.116-17.788 7.046-6.717z" fill="#0D47A1"/><g><path fill="none" d="M246.135 14.481l24.388.527L270 39.286l-24.388-.527z"/><path fill="none" d="M270.146 32.422L253.034 14.63l-7.05 6.715 17.113 17.793z"/><path d="M253.035 14.63l17.111 17.792-7.048 6.715-17.112-17.792 7.049-6.715z" fill="#0D47A1"/></g><g><path fill="none" d="M248.774 50.613l24.394.527-.524 24.272-24.394-.527z"/><path fill="none" d="M272.791 68.544l-17.122-17.783-7.045 6.72 17.122 17.783z"/><path d="M255.67 50.762l17.121 17.782-7.044 6.72-17.122-17.783 7.045-6.72z" fill="#0D47A1"/></g><g><path fill="none" d="M179.585 78.068l24.386.527-.524 24.282-24.386-.527z"/><path fill="none" d="M203.596 96.014l-17.11-17.798-7.05 6.714 17.11 17.798z"/><path d="M186.487 78.217l17.109 17.797-7.051 6.713-17.108-17.797 7.05-6.713z" fill="#0D47A1"/></g><g><path fill="none" d="M181.02 114.049l25.448.55-.539 24.954-25.448-.55z"/><path fill="none" d="M206.468 114.599l-25.448-.55-.539 24.955 25.448.55z"/><path d="M206.094 131.929l-7.834 7.46-.697-.015-16.715-17.353 8.19-7.798 17.056 17.706z" fill="#0D47A1"/></g><g><path fill="none" d="M161.925 93.856l25.1.542-.554 25.649-25.1-.543z"/><path fill="none" d="M187.024 94.398l-25.1-.542-.554 25.648 25.1.542z"/><path d="M161.76 101.482l7.834-7.46 17.056 17.706-8.197 8.146-16.715-17.353.022-1.039z" fill="#0D47A1"/></g><g><path fill="none" d="M199.015 98.278l24.39.527-.524 24.274-24.39-.527z"/><path fill="none" d="M223.029 116.214l-17.117-17.788-7.047 6.717 17.117 17.788z"/><path d="M205.913 98.427l17.116 17.787-7.046 6.717-17.117-17.787 7.047-6.717z" fill="#0D47A1"/></g><g><path fill="none" d="M196.359 62.168l24.398.527-.524 24.268-24.398-.527z"/><path fill="none" d="M220.382 80.092l-17.13-17.776-7.04 6.721 17.129 17.776z"/><path d="M203.253 62.317l17.129 17.775-7.042 6.722-17.129-17.775 7.042-6.722z" fill="#0D47A1"/></g><g><path fill="none" d="M215.531 82.137l24.39.527-.524 24.274-24.39-.526z"/><path fill="none" d="M239.546 100.074l-17.117-17.788-7.047 6.717 17.117 17.788z"/><path d="M222.43 82.286l17.116 17.788-7.047 6.717-17.116-17.788 7.047-6.717z" fill="#0D47A1"/></g><g><path fill="none" d="M172.725 5.33l125.677 2.713-2.694 124.75-125.677-2.715z"/><path fill="none" d="M238.007 22.436l24.38.526-.524 24.286-24.38-.526z"/><path fill="none" d="M262.011 40.39l-17.1-17.806-7.053 6.71L254.957 47.1z"/><path d="M244.912 22.585l17.099 17.804-7.053 6.71-17.099-17.804 7.053-6.71z" fill="#1A237E"/><path fill="none" d="M240.649 58.553l24.394.527-.524 24.272-24.394-.526z"/><path fill="none" d="M264.667 76.485l-17.122-17.783-7.045 6.72 17.122 17.782z"/><path d="M247.546 58.702l17.121 17.783-7.045 6.719-17.121-17.783 7.045-6.719z" fill="#1A237E"/><path fill="none" d="M221.249 38.343l24.388.527-.524 24.278-24.388-.526z"/><path fill="none" d="M245.261 56.285l-17.112-17.793-7.05 6.715L238.213 63z"/><path d="M228.149 38.492l17.112 17.793L238.212 63l-17.111-17.793 7.048-6.715z" fill="#1A237E"/><path fill="none" d="M254.478 7.095l24.402.527-.516 23.914-24.402-.527z"/><path fill="none" d="M278.88 7.622l-24.402-.527-.517 23.914 24.403.527z"/><path d="M261.798 7.253l16.715 17.352-7.122 6.782-17.048-18.053 6.758-6.096.697.015z" fill="#1A237E"/><g><path fill="none" d="M257.402 42.657l24.394.527-.524 24.272-24.394-.526z"/><path fill="none" d="M281.42 60.589l-17.122-17.783-7.045 6.72 17.122 17.782z"/><path d="M264.299 42.806L281.42 60.59l-7.045 6.719-17.121-17.783 7.045-6.719z" fill="#1A237E"/></g><g><path fill="none" d="M273.938 26.575l24.054.52-.531 24.608-24.054-.52z"/><path fill="none" d="M297.991 27.095l-24.054-.52-.532 24.608 24.055.52z"/><path d="M297.624 44.078l-.022 1.04-6.766 6.442-17.048-18.053 7.122-6.781 16.714 17.352z" fill="#1A237E"/></g><g><path fill="none" d="M190.388 106.227l24.386.527-.524 24.28-24.386-.527z"/><path fill="none" d="M214.398 124.171l-17.11-17.795-7.05 6.714 17.11 17.795z"/><path d="M197.289 106.376l17.109 17.795-7.05 6.714-17.108-17.795 7.049-6.714z" fill="#1A237E"/></g><g><path fill="none" d="M170.983 86.007l24.39.527-.524 24.274-24.39-.526z"/><path fill="none" d="M194.997 103.944L177.88 86.156l-7.047 6.717 17.117 17.788z"/><path d="M177.881 86.156l17.116 17.788-7.046 6.717-17.117-17.788 7.047-6.717z" fill="#1A237E"/></g><g><path fill="none" d="M204.482 54.248l24.394.527-.524 24.272-24.394-.527z"/><path fill="none" d="M228.5 72.18l-17.122-17.783-7.045 6.719 17.122 17.783z"/><path d="M211.378 54.397L228.5 72.18l-7.045 6.718-17.121-17.782 7.044-6.719z" fill="#1A237E"/></g><g><path fill="none" d="M187.736 70.12l24.394.526-.524 24.27-24.394-.526z"/><path fill="none" d="M211.755 88.049l-17.124-17.78-7.045 6.72 17.124 17.78z"/><path d="M194.632 70.269l17.123 17.78-7.043 6.72-17.124-17.78 7.044-6.72z" fill="#1A237E"/></g><g><path fill="none" d="M207.15 90.308l24.388.526-.524 24.279-24.388-.527z"/><path fill="none" d="M231.162 108.249L214.05 90.456 207 97.172l17.113 17.792z"/><path d="M214.051 90.457l17.111 17.792-7.049 6.715-17.111-17.792 7.049-6.715z" fill="#1A237E"/></g><g><path fill="none" d="M223.9 74.416l24.39.527-.524 24.275-24.39-.527z"/><path fill="none" d="M247.915 92.353l-17.117-17.788-7.047 6.717 17.117 17.788z"/><path d="M230.799 74.566l17.116 17.787-7.047 6.717-17.116-17.788 7.047-6.716z" fill="#1A237E"/></g></g></g><g opacity=".2"><path fill="none" d="M218.261 4.577l81.573 1.762-2.208 102.248-81.573-1.762z"/><path fill="none" d="M299.834 6.339l-81.573-1.762-2.208 102.248 81.573 1.762z"/><path d="M217.355 46.516l43.087-41.028 2.091.045 36.5 37.892-.052 2.426-64.452 61.372-17.174-60.707z" fill="#EEE"/></g><g><path fill="none" d="M2.957 155.266l137.698 2.974-2.957 136.908L0 292.174z"/><path fill="none" d="M110.305 158.661l29.047.627-.628 29.084-29.047-.628z"/><path fill="none" d="M110.178 164.522l23.357.504-.502 23.223-23.357-.504z"/><path fill="none" d="M133.534 165.026l-23.357-.504-.501 23.222 23.356.505z"/><path d="M133.138 183.396l-.053 2.426-2.492 2.374-20.46-21.594 2.137-2.035 2.44.053 18.428 18.776z" fill="#90A4AE"/><path fill="none" d="M114.873 158.76l12.811.277-.275 12.75-12.811-.276z"/><path fill="none" d="M127.583 163.695l-4.58-4.76-8.306 7.917 4.58 4.76z"/><path d="M123.003 158.935l4.58 4.76-8.305 7.917-4.58-4.76 8.305-7.917z" fill="#90A4AE"/><g><path fill="none" d="M126.294 170.404l12.811.277-.275 12.75-12.811-.276z"/><path fill="none" d="M139.005 175.34l-4.58-4.76-8.306 7.915 4.58 4.76z"/><path d="M134.425 170.58l4.58 4.76-8.306 7.915-4.58-4.76 8.306-7.915z" fill="#90A4AE"/></g><g><path fill="none" d="M2.957 155.266l137.698 2.974-2.957 136.908L0 292.174z"/><path fill="none" d="M140.655 158.239L2.957 155.265 0 292.173l137.698 2.974z"/><path d="M139.854 195.326l-.053 2.426-100.06 95.279-2.44-.053L.8 255.086l.052-2.426 100.061-95.279 2.44.053 36.5 37.892z" fill="#CFD8DC"/></g><g><path fill="none" d="M10.438 164.103l121.316 2.62-2.605 120.628-121.316-2.62z"/><path fill="none" d="M20.818 173.653l101.258 2.187-2.176 100.78-101.259-2.187z"/><path fill="none" d="M122.029 178.047l-2.17-2.255-101.17 96.434 2.17 2.255z"/><path d="M119.859 175.792l2.17 2.255-101.17 96.434-2.17-2.255 101.17-96.434z" fill="#CFD8DC"/><path fill="none" d="M8.687 245.217l39.393.85-.854 39.514-39.393-.851z"/><path fill="none" d="M48.079 246.068l-39.393-.85-.853 39.512 39.393.85z"/><path d="M47.248 284.541l-1.068 1.017-37.516-39.301 1.069-1.017 37.515 39.301z" fill="#CFD8DC"/><path fill="none" d="M16.263 237.253l40.279.87-.868 40.195-40.279-.87z"/><path fill="none" d="M55.714 276.435l-37.553-39.14-1.94 1.843 37.553 39.14z"/><path d="M18.162 237.295l37.552 39.14-1.26 1.198-37.552-39.141 1.26-1.197z" fill="#CFD8DC"/><path fill="none" d="M24.39 229.319l40.283.87-.868 40.19-40.283-.87z"/><path fill="none" d="M63.846 268.496L26.288 229.36l-1.94 1.844 37.558 39.136z"/><path d="M26.288 229.36l37.558 39.136-1.26 1.197-37.558-39.135 1.26-1.198z" fill="#CFD8DC"/><g><path fill="none" d="M33.615 221.464l39.741.858-.853 39.513-39.74-.858z"/><path fill="none" d="M73.356 222.322l-39.74-.858-.854 39.513 39.74.858z"/><path d="M72.533 260.448l-1.425 1.357-37.515-39.301 1.068-1.017 37.872 38.961z" fill="#CFD8DC"/></g><g><path fill="none" d="M41.095 213.451l40.387.872-.866 40.089-40.386-.872z"/><path fill="none" d="M80.657 252.521l-37.669-39.022-1.934 1.85 37.669 39.022z"/><path d="M42.988 213.492l37.669 39.029-1.257 1.201-37.668-39.029 1.256-1.201z" fill="#CFD8DC"/></g><g><path fill="none" d="M50.35 205.541l39.393.85-.853 39.514-39.393-.851z"/><path fill="none" d="M89.743 206.392l-39.393-.85-.854 39.512 39.393.85z"/><path d="M88.92 244.518l-1.077 1.364-37.515-39.301 1.068-1.018 37.523 38.955z" fill="#CFD8DC"/></g><g><path fill="none" d="M58.541 197.736l39.741.858-.846 39.165-39.74-.858z"/><path fill="none" d="M98.282 198.595l-39.74-.858-.847 39.165 39.741.858z"/><path d="M97.459 236.721l-1.069 1.017-37.871-38.962 1.068-1.017 37.872 38.962z" fill="#CFD8DC"/></g><g><path fill="none" d="M67.086 189.592l39.393.85-.854 39.514-39.393-.851z"/><path fill="none" d="M106.478 190.443l-39.393-.85-.853 39.512 39.393.85z"/><path d="M105.647 228.916l-1.068 1.017-37.516-39.301 1.068-1.017 37.516 39.301z" fill="#CFD8DC"/></g><g><path fill="none" d="M75.276 181.814l39.74.858-.845 39.165-39.741-.858z"/><path fill="none" d="M115.016 182.672l-39.74-.858-.847 39.165 39.741.858z"/><path d="M114.193 220.799l-1.417 1.009-37.523-38.954 1.069-1.017 37.871 38.962z" fill="#CFD8DC"/></g><g><path fill="none" d="M83.474 173.662l39.74.858-.852 39.513-39.741-.858z"/><path fill="none" d="M123.215 174.521l-39.74-.858-.854 39.513 39.74.858z"/><path d="M122.384 212.993l-1.068 1.017-37.872-38.961 1.424-1.357 37.516 39.301z" fill="#CFD8DC"/></g><g><path fill="none" d="M92.014 165.865l39.74.858-.853 39.513-39.74-.858z"/><path fill="none" d="M131.754 166.723l-39.74-.858-.854 39.513 39.74.858z"/><path d="M130.931 204.849l-1.424 1.357-37.516-39.301 1.069-1.018 37.871 38.962z" fill="#CFD8DC"/></g></g><g><path fill="none" d="M4.32 156.683l134.561 2.906-2.89 133.795-134.56-2.906z"/><path fill="none" d="M12.17 156.853l126.712 2.737-2.724 126.164-126.713-2.736z"/><path fill="none" d="M43.908 207.149l24.389.527-.525 24.278-24.388-.527z"/><path fill="none" d="M67.92 225.091l-17.112-17.793-7.05 6.716 17.113 17.792z"/><path d="M50.809 207.299l17.11 17.792-7.048 6.715-17.111-17.793 7.049-6.714z" fill="#0D47A1"/><path fill="none" d="M63.31 227.354l24.39.527-.525 24.276-24.39-.527z"/><path fill="none" d="M87.324 245.291l-17.117-17.788-7.047 6.717 17.117 17.788z"/><path d="M70.208 227.503l17.116 17.788-7.047 6.716-17.116-17.787 7.047-6.717z" fill="#0D47A1"/><path fill="none" d="M27.15 223.049l24.39.527-.524 24.276-24.39-.527z"/><path fill="none" d="M51.165 240.986l-17.117-17.788L27 229.915l17.117 17.788z"/><path d="M34.048 223.198l17.117 17.788-7.047 6.717L27 229.915l7.047-6.717z" fill="#0D47A1"/><path fill="none" d="M29.802 259.165l24.386.527-.524 24.28-24.386-.527z"/><path fill="none" d="M53.812 277.109l-17.11-17.795-7.05 6.714 17.11 17.795z"/><path d="M36.703 259.314l17.11 17.795-7.05 6.714-17.11-17.795 7.05-6.714z" fill="#0D47A1"/><g><path fill="none" d="M10.397 238.945l24.39.527-.524 24.274-24.39-.527z"/><path fill="none" d="M34.412 256.881l-17.117-17.788-7.048 6.717 17.117 17.788z"/><path d="M17.295 239.094l17.117 17.787-7.047 6.717-17.116-17.787 7.046-6.717z" fill="#0D47A1"/></g><g><path fill="none" d="M46.57 243.218l24.389.527-.524 24.278-24.389-.527z"/><path fill="none" d="M70.582 261.16L53.47 243.367l-7.049 6.716 17.112 17.792z"/><path d="M53.471 243.367l17.111 17.793-7.048 6.714-17.112-17.792 7.049-6.715z" fill="#0D47A1"/></g><g><path fill="none" d="M77.413 175.39l24.39.527-.524 24.274-24.39-.527z"/><path fill="none" d="M101.428 193.326l-17.117-17.788-7.047 6.717 17.117 17.788z"/><path d="M84.312 175.539l17.116 17.787-7.047 6.717-17.116-17.787 7.047-6.717z" fill="#0D47A1"/></g><g><path fill="none" d="M113.363 178.472l25.1.542-.554 25.648-25.1-.542z"/><path fill="none" d="M138.463 179.014l-25.1-.542-.554 25.648 25.1.542z"/><path d="M130.24 204.497l7.834-7.46.022-1.039-16.715-17.353-8.19 7.799 17.049 18.053z" fill="#0D47A1"/></g><g><path fill="none" d="M93.912 158.618l25.796.557-.547 25.302-25.796-.557z"/><path fill="none" d="M119.708 159.175l-25.796-.557-.546 25.302 25.796.557z"/><path d="M101.581 158.784l-7.834 7.459 17.048 18.053 8.546-8.137-16.714-17.353-1.046-.022z" fill="#0D47A1"/></g><g><path fill="none" d="M96.831 195.559l24.389.527-.525 24.278-24.388-.527z"/><path fill="none" d="M120.843 213.5l-17.112-17.793-7.05 6.716 17.113 17.792z"/><path d="M103.732 195.708l17.111 17.792-7.049 6.715-17.111-17.792 7.049-6.715z" fill="#0D47A1"/></g><g><path fill="none" d="M60.621 191.265l24.399.527-.524 24.272-24.399-.527z"/><path fill="none" d="M84.643 209.194l-17.127-17.78-7.044 6.72L77.6 215.915z"/><path d="M67.517 191.414l17.126 17.78-7.044 6.721-17.126-17.78 7.044-6.721z" fill="#0D47A1"/></g><g><path fill="none" d="M80.061 211.491l24.394.527-.524 24.272-24.394-.527z"/><path fill="none" d="M104.079 229.422l-17.122-17.783-7.045 6.72 17.122 17.782z"/><path d="M86.957 211.64l17.122 17.782-7.045 6.719-17.121-17.782 7.044-6.719z" fill="#0D47A1"/></g><g><path fill="none" d="M4.127 165.656l125.64 2.713-2.695 124.821-125.64-2.713z"/><path fill="none" d="M19.017 231.017l24.39.527-.524 24.276-24.39-.527z"/><path fill="none" d="M43.032 248.953l-17.117-17.788-7.048 6.717 17.117 17.788z"/><path d="M25.915 231.166l17.117 17.787-7.047 6.717-17.116-17.788 7.046-6.716z" fill="#1A237E"/><path fill="none" d="M54.943 235.076l24.39.527-.524 24.274-24.39-.527z"/><path fill="none" d="M78.958 253.012L61.84 235.224l-7.047 6.717L71.91 259.73z"/><path d="M61.841 235.225l17.117 17.787-7.047 6.717-17.116-17.787 7.046-6.717z" fill="#1A237E"/><path fill="none" d="M35.528 214.875l24.39.527-.524 24.274-24.39-.527z"/><path fill="none" d="M59.543 232.812l-17.117-17.788-7.046 6.716 17.117 17.788z"/><path d="M42.427 215.024l17.116 17.788-7.047 6.716-17.116-17.787 7.047-6.717z" fill="#1A237E"/><path fill="none" d="M2.374 246.817l24.055.52-.524 24.262-24.055-.52z"/><path fill="none" d="M26.428 247.336l-24.054-.52-.524 24.263 24.054.52z"/><path d="M2.21 254.442l16.722 17.006 7.122-6.782L8.998 246.96l-6.766 6.442-.022 1.04z" fill="#1A237E"/><g><path fill="none" d="M38.423 251.222l24.394.527-.524 24.272-24.394-.527z"/><path fill="none" d="M62.441 269.153L45.319 251.37l-7.044 6.718 17.122 17.783z"/><path d="M45.32 251.371l17.121 17.782-7.045 6.719-17.121-17.783 7.045-6.718z" fill="#1A237E"/></g><g><path fill="none" d="M21.47 266.984l24.403.527-.517 23.914-24.402-.527z"/><path fill="none" d="M45.872 267.511l-24.402-.527-.516 23.914 24.402.527z"/><path d="M38.035 291.268l1.046.023 6.417-6.45-17.056-17.707-7.121 6.782 16.714 17.352z" fill="#1A237E"/></g><g><path fill="none" d="M104.946 187.656l24.394.527-.524 24.272-24.394-.527z"/><path fill="none" d="M128.964 205.587l-17.122-17.783-7.045 6.72 17.122 17.782z"/><path d="M111.842 187.805l17.122 17.782-7.045 6.719-17.122-17.782 7.045-6.719z" fill="#1A237E"/></g><g><path fill="none" d="M85.512 167.414l24.386.527-.524 24.282-24.386-.527z"/><path fill="none" d="M109.523 185.36l-17.11-17.798-7.05 6.714 17.11 17.798z"/><path d="M92.414 167.563l17.109 17.797-7.051 6.714-17.108-17.797 7.05-6.714z" fill="#1A237E"/></g><g><path fill="none" d="M52.024 199.219l24.394.527-.524 24.272-24.395-.527z"/><path fill="none" d="M76.041 217.151L58.92 199.368l-7.044 6.718 17.121 17.783z"/><path d="M58.92 199.368l17.121 17.783-7.044 6.719-17.122-17.783 7.045-6.719z" fill="#1A237E"/></g><g><path fill="none" d="M68.794 183.3l24.395.527-.525 24.27-24.394-.527z"/><path fill="none" d="M92.814 201.229l-17.125-17.78-7.044 6.72 17.124 17.78z"/><path d="M75.69 183.449l17.124 17.78-7.044 6.72-17.124-17.78 7.044-6.72z" fill="#1A237E"/></g><g><path fill="none" d="M88.197 203.519l24.39.527-.524 24.274-24.39-.527z"/><path fill="none" d="M112.212 221.456l-17.117-17.788-7.047 6.717 17.117 17.788z"/><path d="M95.095 203.668l17.117 17.788-7.047 6.716-17.117-17.787 7.047-6.717z" fill="#1A237E"/></g><g><path fill="none" d="M71.69 219.186l24.394.527-.524 24.272-24.394-.527z"/><path fill="none" d="M95.708 237.117l-17.122-17.783-7.044 6.718 17.122 17.783z"/><path d="M78.587 219.335l17.12 17.782-7.044 6.719-17.121-17.783 7.044-6.718z" fill="#1A237E"/></g></g></g><g opacity=".2"><path fill="none" d="M69.191 156.696l71.464 1.543-1.977 91.503-71.463-1.543z"/><path fill="none" d="M140.655 158.239l-71.463-1.543-1.976 91.502 71.463 1.544z"/><path d="M68.51 188.237l32.404-30.856 2.44.053 36.5 37.892-.053 2.426-53.761 50.853-17.53-60.368z" fill="#212121"/></g></g><g><path fill="none" d="M79.771 76.49l36.128.78-.771 35.685-36.128-.78z"/><path fill="none" d="M84.054 80.696l31.755.686-.682 31.572-31.755-.686z"/><path fill="none" d="M115.809 81.382l-31.755-.686-.681 31.573 31.754.685z"/><path d="M84.086 80.729c1.068-1.017 31.214 24.254 31.214 24.254l-8.191 7.798S83.017 81.746 84.086 80.729z" fill="#F9A825"/><g><path fill="none" d="M79.771 76.49l10.84.235-.234 10.79-10.839-.235z"/><path fill="none" d="M90.495 82.116l-5.308-5.51-5.533 5.28 5.308 5.51z"/><path d="M82.308 84.642a3.803 3.803 0 0 1 .113-5.394 3.846 3.846 0 0 1 5.42.114 3.803 3.803 0 0 1-.113 5.395 3.846 3.846 0 0 1-5.42-.115z" fill="#F9A825"/></g></g><g opacity=".1"><path fill="none" d="M81.272 79.648l30.029.649-.704 32.58-30.029-.648z"/><path fill="none" d="M111.3 80.297l-30.029-.649-.704 32.58 30.03.65z"/><path d="M110.679 109.065l-3.917 3.73S92.51 94.455 86.429 85.308c-1.41.663-3.145.279-4.168-.784-1.365-1.416-1.32-3.496-.244-4.86l28.662 29.401z" fill="#212121"/></g><g><path fill="none" d="M100.662 98.006l27.844.601-.6 27.728-27.843-.602z"/><path fill="none" d="M100.721 98.007l21.423.463-.46 21.299-21.423-.463z"/><path fill="none" d="M122.143 98.47l-21.423-.462-.46 21.299 21.423.462z"/><path d="M100.344 119.233c.682.708 6.001-3.338 12.055-9.102 6.053-5.764 10.349-10.873 9.666-11.581-.682-.709-6.342 2.984-12.395 8.748-6.054 5.764-10.008 11.227-9.326 11.935z" fill="#CFD8DC"/><g><path fill="none" d="M100.662 98.025l27.844.602-.599 27.71-27.843-.602z"/><path fill="none" d="M128.362 105.248l-6.509-6.765-21.646 20.63 6.51 6.765z"/><path d="M121.853 98.483l6.509 6.765-21.646 20.63-6.509-6.765 21.646-20.63z" fill="#CFD8DC"/></g></g><g opacity=".1"><path fill="none" d="M100.523 107.106l16.814.363-.397 18.37-16.814-.363z"/><path fill="none" d="M117.338 107.469l-16.814-.363-.397 18.37 16.814.363z"/><path d="M117.158 115.788l-10.326 9.833-6.481-6.729c-.683-.708 3.272-6.171 8.969-11.596l7.838 8.492z" fill="#212121"/></g><g><path fill="none" d="M99.34 96.898l45.214.977-.964 44.631-45.214-.976z"/><path fill="none" d="M102.125 99.416l42.376.916-.91 42.176-42.377-.915z"/><path fill="none" d="M144.273 110.875l-10.366-10.773-32.465 30.945 10.367 10.773z"/><path d="M133.907 100.103l10.366 10.772-32.465 30.946-10.366-10.773 32.465-30.945z" fill="#8C39B6"/><g><path fill="none" d="M99.34 96.898l36.956.799-.795 36.78-36.955-.797z"/><path fill="none" d="M136.179 103.091l-5.303-5.51-32.214 30.705 5.303 5.511z"/><path d="M101.314 131.041c-1.464-1.522 4.559-9.629 13.455-18.109 8.895-8.479 17.294-14.118 18.759-12.596 1.464 1.521-4.56 9.629-13.455 18.108-8.896 8.479-17.294 14.119-18.759 12.597z" fill="#8C39B6"/></g></g><g opacity=".1"><path fill="none" d="M101.652 113.377l26.358.57-.614 28.42-26.358-.569z"/><path fill="none" d="M128.01 113.946l-26.358-.57-.614 28.422 26.358.57z"/><path d="M127.733 126.771l-16.024 15.258-10.234-10.624c-1.364-1.417 4.386-9.268 13.288-17.745l12.97 13.111z" fill="#212121"/></g><g><path fill="none" d="M98.349 95.36l105.621 2.28-2.272 105.2-105.621-2.281z"/><path fill="none" d="M98.349 95.36l52.724 1.138-1.134 52.474-52.723-1.139z"/><path fill="none" d="M150.85 106.797l-10.125-10.522-43.286 41.26 10.125 10.522z"/><path d="M102.5 142.796c-2.796-2.906 4.628-14.497 16.581-25.891 11.953-11.394 23.91-18.275 26.706-15.369 2.796 2.905-4.627 14.497-16.581 25.891-11.953 11.394-23.91 18.275-26.706 15.369z" fill="#CFD8DC"/><g><path fill="none" d="M102.998 100.761l95.346 2.06-2.05 94.895-95.345-2.06z"/><path fill="none" d="M197.205 155.54l-51.832-53.864-43.286 41.26L153.92 196.8z"/><path d="M145.374 101.676l51.831 53.864-43.287 41.26-51.831-53.864 43.287-41.26z" fill="#CFD8DC"/></g><g><path fill="none" d="M150.108 149.227l52.724 1.139-1.134 52.473-52.723-1.138z"/><path fill="none" d="M202.608 160.664l-10.125-10.522-43.286 41.26 10.125 10.522z"/><path d="M154.259 196.663c-2.796-2.906 4.628-14.498 16.581-25.891 11.953-11.394 23.91-18.275 26.706-15.369 2.796 2.905-4.628 14.497-16.581 25.891-11.953 11.394-23.91 18.274-26.706 15.369z" fill="#90A4AE"/></g></g><g opacity=".1"><path fill="none" d="M102.223 116.86l79.747 1.722-1.712 79.29-79.747-1.722z"/><path fill="none" d="M181.969 118.582l-79.747-1.722-1.713 79.29 79.748 1.722z"/><path d="M180.607 181.663c-11.751 11.19-23.753 17.866-26.482 15.033l-51.85-53.828c-2.73-2.833 4.497-14.467 16.248-25.656l62.084 64.451z" fill="#212121"/></g><g><path fill="none" d="M160.962 160.487l39.05.843-.841 38.995-39.051-.843z"/><path fill="none" d="M160.962 160.487l30.549.66-.657 30.405-30.549-.66z"/><path fill="none" d="M191.427 165.07l-3.857-4.008-27.18 25.908 3.857 4.008z"/><path d="M162.319 188.973c-1.065-1.107 4.156-7.804 11.661-14.958 7.506-7.154 14.454-12.056 15.519-10.949 1.065 1.107-4.156 7.803-11.662 14.958-7.505 7.154-14.453 12.056-15.518 10.949z" fill="#8C39B6"/><g><path fill="none" d="M163.009 162.746l36.955.798-.794 36.782-36.955-.799z"/><path fill="none" d="M199.737 174.087l-10.366-10.773-26.929 25.668 10.367 10.773z"/><path d="M189.371 163.315l10.366 10.772-26.928 25.668-10.367-10.772 26.929-25.668z" fill="#8C39B6"/></g></g><g opacity=".1"><path fill="none" d="M162.843 173.988l23.499.507-.547 25.303-23.498-.508z"/><path fill="none" d="M186.341 174.496l-23.499-.507-.546 25.302 23.499.507z"/><path d="M186.071 186.973l-13.175 12.546-10.234-10.624c-1.023-1.062 4-7.542 11.129-14.67l12.28 12.748z" fill="#212121"/></g><g><path fill="none" d="M161.733 161.408l57.565 1.243-1.235 57.175-57.565-1.243z"/><path fill="none" d="M161.733 161.408l44.84.968-.964 44.628-44.84-.968z"/><path fill="none" d="M206.403 170.223l-7.715-8.017-37.75 35.983 7.715 8.017z"/><path d="M164.796 202.197c-2.131-2.213 4.593-12.063 15.017-21.999 10.425-9.937 20.602-16.197 22.733-13.983 2.13 2.213-4.594 12.063-15.018 22-10.425 9.936-20.602 16.196-22.732 13.982z" fill="#CFD8DC"/><path fill="none" d="M177.059 177.258l40.049.865-.86 39.819-40.049-.865z"/><path fill="none" d="M217.107 178.123l-40.049-.865-.86 39.819 40.049.865z"/><path d="M200.406 201.495c13.175-12.546 17.568-22.16 16.544-23.223-1.023-1.062-10.874 2.886-24.049 15.432-13.175 12.546-17.568 22.16-16.545 23.223 1.024 1.062 10.875-2.886 24.05-15.432z" fill="#37474F"/><path fill="none" d="M175.846 176.004l36.951.798-.793 36.73-36.951-.799z"/><path fill="none" d="M197.111 176.464l15.686.339-.344 15.944-15.686-.339z"/><path fill="none" d="M212.799 176.803l-15.686-.339-.345 15.945 15.687.338z"/><path d="M196.827 189.635l13.531-12.885 2.328 5.252-10.69 10.518-5.169-2.885z" fill="#212121"/><path fill="none" d="M175.39 197.137l16.036.346-.337 15.597-16.036-.347z"/><path fill="none" d="M191.426 197.483l-16.036-.346-.337 15.596 16.036.346z"/><path d="M175.106 210.308l13.531-12.885 2.676 5.259-11.031 10.165-5.176-2.539z" fill="#212121"/><g><path fill="none" d="M188.467 189.118l16.036.346-.344 15.945-16.036-.347z"/><path fill="none" d="M204.503 189.464l-16.036-.346-.345 15.944 16.037.346z"/><path d="M188.183 202.288l13.531-12.884 2.676 5.259-11.038 10.511-5.169-2.886z" fill="#212121"/></g><g><path fill="none" d="M184.372 184.864l15.686.339-.336 15.596-15.687-.339z"/><path fill="none" d="M200.059 185.203l-15.686-.339-.337 15.597 15.686.338z"/><path d="M184.088 198.035l13.531-12.885 2.328 5.252-10.683 10.172-5.176-2.539z" fill="#212121"/></g><g><path fill="none" d="M165.612 165.372l52.988 1.144-1.138 52.684-52.988-1.144z"/><path fill="none" d="M218.6 166.517l-52.988-1.144-1.137 52.683 52.987 1.145z"/><path d="M164.819 202.112l37.745-35.942 15.811 10.745-1.424 1.356c-1.024-1.062-10.874 2.886-24.05 15.431-13.175 12.546-17.568 22.161-16.544 23.223l-1.425 1.356-10.113-16.169z" fill="#CFD8DC"/></g><g><path fill="none" d="M179.195 179.652l35.354.764-.757 35.033-35.354-.763z"/><path fill="none" d="M187.682 188.244l14.29.309-.306 14.22-14.291-.308z"/><path fill="none" d="M201.888 192.476l-3.856-4.008-10.571 10.073 3.856 4.008z"/><path d="M189.388 200.545c-1.065-1.107.438-4.259 3.357-7.041 2.92-2.782 6.15-4.139 7.215-3.032 1.064 1.107-.439 4.259-3.358 7.041s-6.149 4.139-7.214 3.032z" fill="#263238"/><path fill="none" d="M178.745 200.465l14.289.309-.307 14.222-14.29-.308z"/><path fill="none" d="M192.95 204.697l-3.857-4.008-10.57 10.075 3.857 4.008z"/><path d="M180.451 212.768c-1.065-1.107.438-4.26 3.357-7.042s6.148-4.14 7.213-3.033c1.065 1.106-.437 4.259-3.356 7.041-2.919 2.783-6.149 4.141-7.214 3.034z" fill="#263238"/><g><path fill="none" d="M200.259 180.107l14.289.309-.307 14.222-14.29-.308z"/><path fill="none" d="M214.463 184.339l-3.857-4.008-10.57 10.075 3.857 4.008z"/><path d="M201.965 192.41c-1.065-1.107.437-4.259 3.356-7.041 2.919-2.783 6.149-4.141 7.214-3.034 1.065 1.107-.438 4.26-3.357 7.042-2.918 2.782-6.148 4.14-7.213 3.033z" fill="#263238"/></g><g><path fill="none" d="M191.901 192.937l13.795.298-.297 13.733-13.795-.298z"/><path fill="none" d="M205.623 196.667l-3.376-3.507-10.568 10.076 3.376 3.507z"/><path d="M193.366 204.991c-.932-.969.679-4.01 3.597-6.792 2.918-2.783 6.04-4.253 6.972-3.285.932.968-.678 4.009-3.596 6.792-2.919 2.782-6.04 4.253-6.973 3.285z" fill="#263238"/></g></g><g><path fill="none" d="M182.661 183.439l28.583.617-.606 28.064-28.583-.618z"/><path fill="none" d="M191.195 191.926l7.32.158-.157 7.278-7.32-.158z"/><path fill="none" d="M198.516 192.084l-7.32-.158-.157 7.278 7.32.158z"/><path d="M195.289 196.176c1.78-1.695 2.863-3.406 3.227-4.092-1.053.324-2.47 1.334-4.251 3.03-1.78 1.695-2.863 3.405-3.227 4.091.705-.332 2.47-1.334 4.251-3.029z" fill="#FF8F00"/><path fill="none" d="M182.213 204.225l7.32.158-.157 7.278-7.32-.158z"/><path fill="none" d="M189.533 204.383l-7.32-.158-.157 7.278 7.32.158z"/><path d="M186.306 208.475c1.78-1.696 2.864-3.406 3.227-4.092-1.053.324-2.47 1.334-4.25 3.029-1.781 1.696-2.864 3.406-3.228 4.092.705-.332 2.471-1.334 4.251-3.029z" fill="#FF8F00"/><g><path fill="none" d="M203.924 183.898l7.32.158-.157 7.278-7.32-.158z"/><path fill="none" d="M211.245 184.057l-7.32-.158-.157 7.278 7.32.158z"/><path d="M208.017 188.148c1.781-1.695 2.864-3.406 3.228-4.091-1.054.324-2.471 1.333-4.251 3.029-1.78 1.695-2.864 3.405-3.227 4.091.712-.678 2.47-1.334 4.25-3.029z" fill="#FF8F00"/></g><g><path fill="none" d="M195.965 197.234l5.927.128-.128 5.893-5.926-.128z"/><path fill="none" d="M201.891 197.362l-5.927-.128-.127 5.893 5.927.128z"/><path d="M199.035 200.421c1.425-1.356 2.144-2.381 2.856-3.059-1.06.671-2.121 1.342-3.197 2.705-1.424 1.357-2.144 2.381-2.856 3.06.712-.679 2.129-1.688 3.197-2.706z" fill="#FF8F00"/></g></g><g><path fill="none" d="M175.248 175.377l43.754.945-.94 43.504-43.754-.945z"/><path fill="none" d="M219.002 176.322l-43.754-.945-.94 43.504 43.754.945z"/><path fill-rule="evenodd" clip-rule="evenodd" d="M218.376 176.918c-2.729-2.833-14.731 3.843-26.838 15.372-12.099 11.181-19.326 22.815-16.604 25.995 2.729 2.833 14.731-3.843 26.838-15.371 12.107-11.529 19.333-23.163 16.604-25.996zm-1.424 1.357c1.023 1.062-3.369 10.676-16.545 23.222-13.175 12.546-23.026 16.494-24.049 15.431-1.023-1.062 3.37-10.676 16.545-23.222 13.175-12.546 23.026-16.494 24.049-15.431z" fill="#90A4AE"/></g></g><g opacity=".1"><path fill="none" d="M164.897 179.933l37.005.8-.836 38.736-37.006-.799z"/><path fill="none" d="M201.902 180.732l-37.005-.8-.837 38.738 37.005.799z"/><path d="M201.415 203.261c-11.75 11.189-23.753 17.865-26.482 15.032l-10.113-16.169c-2.047-2.125 4.445-12.041 14.771-21.874l21.824 23.011z" fill="#212121"/></g></svg>