<svg width="24" height="24" viewBox="0 0 24 24" fill="none" xmlns="http://www.w3.org/2000/svg">
<path fill-rule="evenodd" clip-rule="evenodd" d="M13.3905 12.5786H14.2939L20 18.2961L18.2961 20L12.5786 14.2939V13.3905L12.2699 13.0703C10.9662 14.191 9.27386 14.8657 7.4328 14.8657C3.32764 14.8657 0 11.538 0 7.4328C0 3.32764 3.32764 0 7.4328 0C11.538 0 14.8657 3.32764 14.8657 7.4328C14.8657 9.27386 14.191 10.9662 13.0703 12.2699L13.3905 12.5786ZM2.28705 7.43292C2.28705 10.2803 4.58551 12.5787 7.43286 12.5787C10.2802 12.5787 12.5786 10.2803 12.5786 7.43292C12.5786 4.58557 10.2802 2.28711 7.43286 2.28711C4.58551 2.28711 2.28705 4.58557 2.28705 7.43292Z" transform="translate(2 2)" fill="rgba(51, 102, 180, 0.5)"/>
</svg>
