<svg width="24" height="24" viewBox="0 0 24 24" fill="none" xmlns="http://www.w3.org/2000/svg">
<rect width="24" height="24" fill="black" fill-opacity="0"/>
<rect width="24" height="24" fill="black" fill-opacity="0"/>
<rect width="24" height="24" fill="black" fill-opacity="0"/>
<path d="M12 0C5.3832 0 0 5.3832 0 12C0 18.6168 5.3832 24 12 24C18.6168 24 24 18.6168 24 12C24 5.3832 18.6168 0 12 0ZM12 21.4466C6.79119 21.4466 2.55315 17.2091 2.55315 12C2.55315 6.79094 6.79119 2.5534 12 2.5534C17.2088 2.5534 21.4468 6.79094 21.4468 12C21.4468 17.2091 17.2088 21.4466 12 21.4466Z" fill="#00BCD4"/>
<path d="M18.2539 11.6295H12.8611V5.14532C12.8611 4.59966 12.4187 4.15726 11.873 4.15726C11.3274 4.15726 10.8849 4.59966 10.8849 5.14532V12.6175C10.8849 13.1632 11.3274 13.6056 11.873 13.6056H18.2539C18.7996 13.6056 19.242 13.1632 19.242 12.6175C19.242 12.0719 18.7996 11.6295 18.2539 11.6295Z" fill="#00BCD4"/>
</svg>
