<svg width="24" height="24" viewBox="0 0 24 24" fill="none" xmlns="http://www.w3.org/2000/svg">
<rect width="24" height="24" fill="black" fill-opacity="0"/>
<rect width="24" height="21.6" fill="black" fill-opacity="0" transform="translate(0 1)"/>
<rect width="24" height="21.6" fill="black" fill-opacity="0" transform="translate(0 1)"/>
<rect width="24" height="21.6" fill="black" fill-opacity="0" transform="translate(0 1)"/>
<path d="M23.3705 1.72098C22.9509 1.24024 22.4464 1 21.8572 1H2.1429C1.55363 1 1.04908 1.24024 0.629427 1.72098C0.209731 2.20183 0 2.7795 0 3.45459V20.1456C0 20.8208 0.209731 21.3982 0.629427 21.8792C1.04903 22.3599 1.55358 22.6 2.1429 22.6H21.8572C22.4464 22.6 22.9509 22.3599 23.3706 21.8792C23.7904 21.3982 24 20.8204 24 20.1456V3.45459C24 2.7795 23.7904 2.20161 23.3705 1.72098ZM22.2855 20.1452C22.2855 20.2782 22.2432 20.3932 22.1584 20.4904C22.0738 20.5876 21.9731 20.6358 21.8572 20.6358H2.1429C2.02685 20.6358 1.92642 20.5876 1.84161 20.4904C1.75675 20.3932 1.71439 20.2782 1.71439 20.1452V7.38182C1.71439 7.24883 1.75675 7.13374 1.84161 7.03648C1.92647 6.93944 2.02685 6.89092 2.1429 6.89092H21.8572C21.9731 6.89092 22.0736 6.93928 22.1584 7.03648C22.2432 7.13374 22.2855 7.24883 22.2855 7.38182V20.1452Z" fill="#00BCD4"/>
<path d="M4.71435 15.5092H3.85723C3.74117 15.5092 3.64074 15.5574 3.55593 15.6545C3.47116 15.7518 3.42871 15.8669 3.42871 15.9998V16.9815C3.42871 17.1147 3.47116 17.2296 3.55593 17.3269C3.64079 17.4241 3.74117 17.4723 3.85723 17.4723H4.71435C4.83036 17.4723 4.93084 17.4241 5.01565 17.3269C5.10041 17.2296 5.14287 17.1147 5.14287 16.9815V15.9998C5.14287 15.8669 5.10041 15.7518 5.01565 15.6545C4.93084 15.5578 4.83036 15.5092 4.71435 15.5092Z" fill="#00BCD4"/>
<path d="M4.71435 11.5815H3.85723C3.74117 11.5815 3.64074 11.6304 3.55593 11.7274C3.47116 11.8247 3.42871 11.9398 3.42871 12.0725V13.0544C3.42871 13.1876 3.47116 13.3021 3.55593 13.3998C3.64079 13.4965 3.74117 13.5452 3.85723 13.5452H4.71435C4.83036 13.5452 4.93084 13.4965 5.01565 13.3998C5.10041 13.3021 5.14287 13.1876 5.14287 13.0544V12.0725C5.14287 11.9398 5.10041 11.8243 5.01565 11.7274C4.93084 11.6304 4.83036 11.5815 4.71435 11.5815Z" fill="#00BCD4"/>
<path d="M20.1427 15.5092H7.28557C7.16957 15.5092 7.06909 15.5574 6.98427 15.6545C6.89951 15.7518 6.85706 15.8669 6.85706 15.9998V16.9815C6.85706 17.1147 6.89951 17.2296 6.98427 17.3269C7.06913 17.4241 7.16961 17.4723 7.28557 17.4723H20.1429C20.2591 17.4723 20.3594 17.4241 20.4444 17.3269C20.529 17.2296 20.5714 17.1147 20.5714 16.9815V15.9998C20.5714 15.8669 20.5288 15.7518 20.4442 15.6545C20.3594 15.5574 20.2589 15.5092 20.1427 15.5092Z" fill="#00BCD4"/>
<path d="M20.1427 11.5815H7.28557C7.16957 11.5815 7.06909 11.6304 6.98427 11.7274C6.89951 11.8247 6.85706 11.9398 6.85706 12.0725V13.0544C6.85706 13.1876 6.89951 13.3021 6.98427 13.3998C7.06913 13.4965 7.16961 13.5452 7.28557 13.5452H20.1429C20.2591 13.5452 20.3594 13.4965 20.4444 13.3998C20.529 13.3021 20.5714 13.1876 20.5714 13.0544V12.0725C20.5714 11.9398 20.5288 11.8243 20.4442 11.7274C20.3594 11.6304 20.2589 11.5815 20.1427 11.5815Z" fill="#00BCD4"/>
</svg>
