<svg width="16" height="22" fill="none" xmlns="http://www.w3.org/2000/svg"><path d="M7.805 8.196a.669.669 0 0 0-.944-.001L4.667 10.39l-.862-.863a.667.667 0 0 0-.942.943l1.333 1.333a.67.67 0 0 0 .943.001L7.805 9.14a.667.667 0 0 0 0-.943zM7.805 13.53a.669.669 0 0 0-.944-.002l-2.194 2.196-.862-.861a.667.667 0 0 0-.942.942l1.333 1.334a.664.664 0 0 0 .943 0l2.666-2.667a.667.667 0 0 0 0-.943zM12.667 9.333H10a.667.667 0 0 0 0 1.334h2.667a.667.667 0 0 0 0-1.334zM12.667 14.667H10A.667.667 0 0 0 10 16h2.667a.667.667 0 0 0 0-1.333z" fill="#3366B4" fill-opacity=".87"/><path d="M14.667 2.667H12V2a.667.667 0 0 0-.667-.667H9.887A2.005 2.005 0 0 0 8 0c-.87 0-1.61.557-1.887 1.333H4.667A.667.667 0 0 0 4 2v.667H1.333C.6 2.667 0 3.265 0 4v16c0 .735.599 1.333 1.333 1.333h13.334C15.4 21.333 16 20.735 16 20V4c0-.735-.599-1.333-1.333-1.333zm-9.334 0h1.334A.667.667 0 0 0 7.333 2a.667.667 0 0 1 1.334 0c0 .368.298.667.666.667h1.334V4H5.333V2.667zM14.667 20H1.333V4H4v.667c0 .368.299.666.667.666h6.666A.667.667 0 0 0 12 4.667V4h2.667v16z" fill="#3366B4" fill-opacity=".87"/></svg>