<svg width="24" height="24" viewBox="0 0 24 24" fill="none" xmlns="http://www.w3.org/2000/svg">
<g opacity="0.87">
<path d="M18.5663 3.3571C18.2773 3.06783 17.9345 2.92318 17.5387 2.92318H16.0773V1.82696C16.0773 1.32465 15.8983 0.894526 15.5405 0.536747C15.1826 0.178969 14.7527 0 14.2501 0H13.5195C13.017 0 12.587 0.178969 12.2292 0.536787C11.8713 0.894526 11.6924 1.32469 11.6924 1.827V2.92322H7.30798V1.827C7.30798 1.32469 7.12901 0.894566 6.77119 0.536787C6.41345 0.178969 5.98337 0 5.48085 0H4.75014C4.24775 0 3.81762 0.178969 3.4598 0.536787C3.10206 0.894526 2.92306 1.32469 2.92306 1.827V2.92322H1.46163C1.0657 2.92322 0.723195 3.06787 0.433925 3.35714C0.144655 3.64637 0 3.98903 0 4.38484V19.0004C0 19.396 0.144655 19.7386 0.433925 20.028C0.723155 20.3172 1.06566 20.4619 1.46163 20.4619H17.5384C17.9342 20.4619 18.2771 20.3172 18.566 20.028C18.8553 19.7387 19 19.3959 19 19.0004V4.3848C19 3.98887 18.8554 3.64637 18.5663 3.3571ZM13.1542 1.82712C13.1542 1.72046 13.1881 1.63284 13.2566 1.56449C13.325 1.49606 13.4126 1.46179 13.5193 1.46179H14.2499C14.3567 1.46179 14.444 1.49594 14.5127 1.56449C14.5811 1.63296 14.6153 1.72058 14.6153 1.82712V5.11552C14.6153 5.22214 14.5811 5.3096 14.5127 5.37815C14.4439 5.4465 14.3567 5.48085 14.2499 5.48085H13.5193C13.4126 5.48085 13.325 5.44666 13.2566 5.37815C13.1881 5.30956 13.1542 5.22214 13.1542 5.11552V1.82712ZM4.3848 1.82712C4.3848 1.72046 4.419 1.63284 4.48751 1.56449C4.55605 1.49606 4.64352 1.46179 4.75014 1.46179H5.48085C5.58752 1.46179 5.67514 1.49594 5.74349 1.56449C5.81192 1.63296 5.84627 1.72058 5.84627 1.82712V5.11552C5.84627 5.22214 5.81208 5.30972 5.74349 5.37815C5.67498 5.4465 5.58752 5.48085 5.48085 5.48085H4.75014C4.64352 5.48085 4.55593 5.44666 4.48751 5.37815C4.41916 5.30956 4.3848 5.22214 4.3848 5.11552V1.82712ZM17.5384 19.0002H1.46163V7.30786H17.5384V19.0002V19.0002Z" transform="translate(3 2)" fill="#443B3B"/>
</g>
</svg>
