<svg width="24" height="24" viewBox="0 0 24 24" fill="none" xmlns="http://www.w3.org/2000/svg">
<path d="M0.425 3.56385H7.58965C7.8251 3.56385 8.01465 3.38129 8.01465 3.15543V2.86442C8.01465 2.31214 7.56694 1.86443 7.01465 1.86443H6.1319V0.816835C6.1319 0.365942 5.7511 0 5.2819 0H2.7319C2.2627 0 1.8819 0.365942 1.8819 0.816835V1.86443H1C0.447715 1.86443 0 2.31214 0 2.86443V3.15543C0 3.38129 0.189975 3.56385 0.425 3.56385Z" transform="translate(8.4931 1)" fill="#443B3B"/>
<path d="M13.3578 0V1.29101C13.3578 1.96653 12.7853 2.51626 12.0828 2.51626H4.9181C4.21515 2.51626 3.6431 1.96653 3.6431 1.29101V0H2C0.895432 0 0 0.895431 0 2V17.9602C0 18.8623 0.761175 19.5938 1.7 19.5938H15.3C16.2388 19.5938 17 18.8623 17 17.9602V2C17 0.895432 16.1046 0 15 0H13.3578ZM14.875 17.5517H2.125V4.34311H14.875V17.5517Z" transform="translate(4 3.27271)" fill="#443B3B"/>
<rect width="8.5" height="1.22525" rx="0.5" transform="translate(8.25 10.3937)" fill="#443B3B"/>
<rect width="8.5" height="1.22525" rx="0.5" transform="translate(8.25 13.2526)" fill="#443B3B"/>
<rect width="8.5" height="1.22525" rx="0.5" transform="translate(8.25 16.1115)" fill="#443B3B"/>
</svg>
