<svg width="24" height="24" viewBox="0 0 24 24" fill="none" xmlns="http://www.w3.org/2000/svg">
<path fill-rule="evenodd" clip-rule="evenodd" d="M8.99726 13.3186V19.5686C8.99726 20.2561 8.43476 20.8186 7.74726 20.8186H3.99726C3.30976 20.8186 2.74732 20.2561 2.74732 19.5686V10.8186H0.622322C0.0473094 10.8186 -0.215203 10.1062 0.209846 9.73117L10.6597 0.318695C11.1347 -0.106232 11.8597 -0.106232 12.3347 0.318695L22.7846 9.73117C23.2221 10.1062 22.9471 10.8186 22.3721 10.8186H20.2471V19.5686C20.2471 20.2561 19.6846 20.8186 18.9971 20.8186H15.2472C14.5597 20.8186 13.9972 20.2561 13.9972 19.5686V13.3186H8.99726ZM7.49995 18.7498H4.99995V8.74985L11.2499 2.49997L18.1248 8.74985V18.7498H15.6248V11.2498H7.49995V18.7498Z" transform="translate(0 2)" fill="#443B3B"/>
</svg>
