<svg width="70" height="45" viewBox="0 0 70 45" fill="none" xmlns="http://www.w3.org/2000/svg">
<g filter="url(#filter0_dd)">
<path d="M17.7094 35.1221C27.49 35.1221 35.4187 27.2598 35.4187 17.5611C35.4187 7.86235 27.49 0 17.7094 0C7.92875 0 0 7.86235 0 17.5611C0 27.2598 7.92875 35.1221 17.7094 35.1221Z" transform="matrix(0.997593 -0.0693421 0.070524 0.99751 15.3965 6.72165)" fill="#8C39B6"/>
<path d="M34.9187 17.5611C34.9187 26.9797 27.2178 34.6221 17.7094 34.6221C8.20092 34.6221 0.5 26.9797 0.5 17.5611C0.5 8.14245 8.20092 0.5 17.7094 0.5C27.2178 0.5 34.9187 8.14245 34.9187 17.5611Z" transform="matrix(0.997593 -0.0693421 0.070524 0.99751 15.3965 6.72165)" stroke="#344662" stroke-opacity="0.1" style="mix-blend-mode:overlay"/>
</g>
<path opacity="0.45" d="M29.3689 13.8303C29.1328 10.7577 28.0069 7.81809 26.1266 5.36468C24.2462 2.91127 21.6914 1.04842 18.7691 0C20.8389 2.51117 22.0753 5.59531 22.3091 8.83016C22.4414 10.9495 22.1502 13.074 21.452 15.0814C20.7539 17.0889 19.6627 18.9398 18.241 20.5278C16.8194 22.1159 15.0953 23.4098 13.1678 24.3352C11.2403 25.2607 9.14747 25.7994 7.0094 25.9205C4.62774 26.0868 2.23775 25.7459 0 24.9205C1.68859 26.9653 3.8481 28.5777 6.29659 29.6219C8.74509 30.6661 11.4108 31.1115 14.0692 30.9206C16.2073 30.7995 18.3002 30.2607 20.2276 29.3353C22.1551 28.4099 23.8792 27.116 25.3009 25.5279C26.7225 23.9399 27.8138 22.089 28.5119 20.0815C29.21 18.0741 29.5012 15.9496 29.3689 13.8303Z" transform="translate(22.1766 8.49611)" fill="#E4CFEE" fill-opacity="0.51"/>
<path d="M79.5224 0H0.352225C0.157697 0 0 0.273131 0 0.610051V1.3944C0 1.73132 0.157697 2.00444 0.352225 2.00444H79.5224C79.7169 2.00444 79.8746 1.73132 79.8746 1.3944V0.610051C79.8746 0.273131 79.7169 0 79.5224 0Z" transform="matrix(0.863559 -0.504248 0.510647 0.85979 0 42.2766)" fill="white"/>
<path opacity="0.8" d="M67.2247 0H0.221399C0.0991235 0 0 0.14517 0 0.324247V0.677972C0 0.857049 0.0991235 1.00222 0.221399 1.00222H67.2247C67.347 1.00222 67.4461 0.857049 67.4461 0.677972V0.324247C67.4461 0.14517 67.347 0 67.2247 0Z" transform="matrix(0.863559 -0.504248 0.510647 0.85979 5.18274 38.6401)" fill="#DDDDDD"/>
<defs>
<filter id="filter0_dd" x="12.5908" y="0.449921" width="44.4216" height="44.1221" filterUnits="userSpaceOnUse" color-interpolation-filters="sRGB">
<feFlood flood-opacity="0" result="BackgroundImageFix"/>
<feColorMatrix in="SourceAlpha" type="matrix" values="0 0 0 0 0 0 0 0 0 0 0 0 0 0 0 0 0 0 255 0"/>
<feOffset dx="-1" dy="1"/>
<feGaussianBlur stdDeviation="1.5"/>
<feColorMatrix type="matrix" values="0 0 0 0 0 0 0 0 0 0 0 0 0 0 0 0 0 0 0.2 0"/>
<feBlend mode="normal" in2="BackgroundImageFix" result="effect1_dropShadow"/>
<feColorMatrix in="SourceAlpha" type="matrix" values="0 0 0 0 0 0 0 0 0 0 0 0 0 0 0 0 0 0 255 0"/>
<feOffset dx="1" dy="-1"/>
<feGaussianBlur stdDeviation="2"/>
<feColorMatrix type="matrix" values="0 0 0 0 0 0 0 0 0 0 0 0 0 0 0 0 0 0 0.15 0"/>
<feBlend mode="normal" in2="effect1_dropShadow" result="effect2_dropShadow"/>
<feBlend mode="normal" in="SourceGraphic" in2="effect2_dropShadow" result="shape"/>
</filter>
</defs>
</svg>
