<svg width="24" height="24" viewBox="0 0 24 24" fill="none" xmlns="http://www.w3.org/2000/svg">
<path d="M18.9763 7.90052L17.5725 7.66237C17.4263 7.19026 17.2383 6.73487 17.0085 6.30036L17.8357 5.14307C18.1866 4.65007 18.1323 3.97742 17.702 3.55126L16.457 2.30623C16.223 2.07227 15.9138 1.94275 15.5838 1.94275C15.3247 1.94275 15.0782 2.02213 14.8693 2.17254L13.7079 2.99977C13.2567 2.76163 12.7845 2.56527 12.2957 2.41904L12.0618 1.03196C11.9615 0.434508 11.4476 0 10.8418 0H9.08288C8.47707 0 7.96319 0.434508 7.86291 1.03196L7.62059 2.45246C7.15266 2.59869 6.69726 2.79088 6.26276 3.02484L5.11382 2.19761C4.90492 2.0472 4.65424 1.96782 4.39521 1.96782C4.06515 1.96782 3.75181 2.09733 3.52202 2.3313L2.27281 3.57633C1.84666 4.00248 1.78817 4.67513 2.13911 5.16813L2.97471 6.34214C2.74492 6.78082 2.56109 7.23622 2.41904 7.70833L1.03196 7.9423C0.434508 8.04257 0 8.55646 0 9.16226V10.9212C0 11.527 0.434508 12.0409 1.03196 12.1411L2.45246 12.3835C2.59869 12.8514 2.79088 13.3068 3.02484 13.7413L2.20178 14.8861C1.85084 15.3791 1.90515 16.0517 2.33548 16.4779L3.58051 17.7229C3.81447 17.9569 4.12364 18.0864 4.4537 18.0864C4.71274 18.0864 4.95923 18.007 5.16813 17.8566L6.34214 17.021C6.76411 17.2424 7.20698 17.4221 7.66237 17.5641L7.89634 18.9679C7.99661 19.5654 8.5105 19.9999 9.1163 19.9999H10.8794C11.4852 19.9999 11.9991 19.5654 12.0994 18.9679L12.3375 17.5641C12.8096 17.4179 13.265 17.2299 13.6995 17.0001L14.8568 17.8273C15.0657 17.9777 15.3164 18.0571 15.5754 18.0571C15.9055 18.0571 16.2147 17.9276 16.4486 17.6936L17.6936 16.4486C18.1198 16.0225 18.1783 15.3498 17.8273 14.8568L17.0001 13.6953C17.2299 13.2567 17.4221 12.8013 17.5641 12.3333L18.9679 12.0994C19.5654 11.9991 19.9999 11.4852 19.9999 10.8794V9.12048C20.0082 8.51468 19.5737 8.00079 18.9763 7.90052ZM18.8802 10.8794C18.8802 10.9337 18.8426 10.9797 18.7883 10.988L17.0335 11.2805C16.8121 11.3181 16.6366 11.481 16.5823 11.6941C16.4235 12.3083 16.1812 12.8974 15.8553 13.4447C15.7425 13.6369 15.7509 13.875 15.8804 14.0588L16.9124 15.5128C16.9416 15.5545 16.9374 15.6172 16.8998 15.6548L15.6548 16.8998C15.6256 16.9291 15.5963 16.9333 15.5754 16.9333C15.5504 16.9333 15.5295 16.9249 15.5128 16.9124L14.063 15.8804C13.8834 15.7509 13.641 15.7425 13.4488 15.8553C12.9015 16.1812 12.3124 16.4236 11.6983 16.5823C11.481 16.6366 11.3181 16.8163 11.2847 17.0335L10.988 18.7883C10.9797 18.8426 10.9337 18.8802 10.8794 18.8802H9.12048C9.06617 18.8802 9.02021 18.8426 9.01185 18.7883L8.7194 17.0335C8.68179 16.8121 8.51885 16.6366 8.30578 16.5823C7.70833 16.4277 7.13177 16.1896 6.59282 15.8804C6.50508 15.8303 6.40481 15.8052 6.30872 15.8052C6.19591 15.8052 6.07893 15.8386 5.98283 15.9097L4.52055 16.95C4.49966 16.9625 4.47877 16.9709 4.45788 16.9709C4.44117 16.9709 4.40774 16.9667 4.3785 16.9374L3.13347 15.6924C3.09587 15.6548 3.09169 15.5963 3.12093 15.5504L4.14871 14.109C4.27823 13.9251 4.28658 13.6828 4.17378 13.4906C3.8479 12.9475 3.59722 12.3584 3.43846 11.7442C3.37997 11.5312 3.20449 11.3682 2.98724 11.3306L1.21996 11.0298C1.16565 11.0215 1.12805 10.9755 1.12805 10.9212V9.16226C1.12805 9.10795 1.16565 9.06199 1.21996 9.05363L2.96217 8.76118C3.1836 8.72357 3.36326 8.56063 3.41757 8.34338C3.57215 7.72922 3.8103 7.13595 4.132 6.58864C4.2448 6.39645 4.23227 6.15831 4.10275 5.97866L3.06244 4.51637C3.0332 4.47459 3.03737 4.41192 3.07498 4.37432L4.32001 3.12929C4.34925 3.10004 4.3785 3.09587 4.39939 3.09587C4.42446 3.09587 4.44535 3.10422 4.46206 3.11676L5.90345 4.14453C6.08728 4.27405 6.32961 4.28241 6.52179 4.1696C7.06493 3.84372 7.65402 3.59304 8.26818 3.43428C8.48125 3.37579 8.64419 3.20032 8.68179 2.98306L8.98261 1.21579C8.99096 1.16147 9.03692 1.12387 9.09123 1.12387H10.8502C10.9045 1.12387 10.9504 1.16147 10.9588 1.21579L11.2512 2.95799C11.2888 3.17943 11.4518 3.35908 11.669 3.41339C12.2999 3.57215 12.9015 3.81865 13.4614 4.14871C13.6536 4.26152 13.8917 4.25316 14.0755 4.12364L15.5169 3.08751C15.5378 3.07498 15.5587 3.06662 15.5796 3.06662C15.5963 3.06662 15.6297 3.0708 15.659 3.10004L16.904 4.34508C16.9416 4.38268 16.9458 4.44117 16.9165 4.48713L15.8846 5.93688C15.7551 6.11653 15.7467 6.35885 15.8595 6.55104C16.1854 7.09835 16.4277 7.68744 16.5865 8.3016C16.6408 8.51886 16.8205 8.6818 17.0377 8.71522L18.7925 9.01185C18.8468 9.02021 18.8844 9.06617 18.8844 9.12048V10.8794H18.8802V10.8794Z" transform="translate(2 2)" fill="#443B3B"/>
<path d="M17.3949 7.24218L16.1081 7.02388C15.9741 6.59111 15.8017 6.17366 15.5911 5.77536L16.3494 4.7145C16.6711 4.26259 16.6213 3.64599 16.2268 3.25534L15.0856 2.11406C14.8711 1.89959 14.5877 1.78086 14.2851 1.78086C14.0477 1.78086 13.8217 1.85363 13.6302 1.9915L12.5656 2.74981C12.1519 2.53151 11.7192 2.35151 11.2711 2.21746L11.0566 0.945965C10.9647 0.398301 10.4936 0 9.93832 0H8.32597C7.77065 0 7.29959 0.398301 7.20767 0.945965L6.98554 2.2481C6.55661 2.38215 6.13916 2.55832 5.74086 2.77279L4.68767 2.01448C4.49618 1.87661 4.26639 1.80384 4.02894 1.80384C3.72639 1.80384 3.43916 1.92257 3.22852 2.13704L2.08341 3.27832C1.69277 3.66896 1.63915 4.28557 1.96085 4.73748L2.72681 5.81366C2.51617 6.21579 2.34766 6.63324 2.21745 7.06601L0.945959 7.28048C0.398299 7.3724 0 7.84346 0 8.39879V10.0111C0 10.5665 0.398299 11.0375 0.945959 11.1294L2.24809 11.3516C2.38213 11.7805 2.5583 12.198 2.77277 12.5963L2.0183 13.6456C1.6966 14.0976 1.74639 14.7142 2.14086 15.1048L3.28213 16.2461C3.4966 16.4606 3.78001 16.5793 4.08256 16.5793C4.32001 16.5793 4.54597 16.5065 4.73746 16.3686L5.81363 15.6027C6.20044 15.8057 6.6064 15.9703 7.02384 16.1006L7.23831 17.3874C7.33023 17.935 7.80129 18.3333 8.35661 18.3333H9.97278C10.5281 18.3333 10.9992 17.935 11.0911 17.3874L11.3094 16.1006C11.7421 15.9665 12.1596 15.7942 12.5579 15.5835L13.6187 16.3418C13.8102 16.4797 14.04 16.5525 14.2775 16.5525C14.58 16.5525 14.8634 16.4337 15.0779 16.2193L16.2192 15.078C16.6098 14.6873 16.6634 14.0707 16.3417 13.6188L15.5834 12.5541C15.7941 12.152 15.9702 11.7346 16.1005 11.3056L17.3873 11.0912C17.9349 10.9992 18.3332 10.5282 18.3332 9.97284V8.36049C18.3409 7.80517 17.9426 7.3341 17.3949 7.24218ZM17.3068 9.97284C17.3068 10.0226 17.2724 10.0648 17.2226 10.0724L15.6141 10.3405C15.4111 10.375 15.2502 10.5243 15.2005 10.7197C15.0549 11.2826 14.8328 11.8226 14.5341 12.3244C14.4307 12.5005 14.4383 12.7188 14.557 12.8873L15.503 14.2201C15.5298 14.2584 15.526 14.3159 15.4915 14.3503L14.3502 15.4916C14.3234 15.5184 14.2966 15.5222 14.2775 15.5222C14.2545 15.5222 14.2353 15.5146 14.22 15.5031L12.8911 14.5571C12.7264 14.4384 12.5043 14.4308 12.3281 14.5342C11.8264 14.8329 11.2864 15.055 10.7234 15.2005C10.5243 15.2503 10.3749 15.415 10.3443 15.6142L10.0724 17.2227C10.0647 17.2725 10.0226 17.3069 9.97278 17.3069H8.36044C8.31065 17.3069 8.26853 17.2725 8.26087 17.2227L7.99278 15.6142C7.95831 15.4112 7.80895 15.2503 7.61363 15.2005C7.06597 15.0588 6.53746 14.8405 6.04342 14.5571C5.96299 14.5112 5.87107 14.4882 5.78299 14.4882C5.67959 14.4882 5.57235 14.5188 5.48427 14.5839L4.14384 15.5376C4.12469 15.5491 4.10554 15.5567 4.08639 15.5567C4.07107 15.5567 4.04043 15.5529 4.01362 15.5261L2.87235 14.3848C2.83788 14.3503 2.83405 14.2967 2.86086 14.2546L3.80299 12.9333C3.92171 12.7648 3.92937 12.5427 3.82596 12.3665C3.52724 11.8686 3.29745 11.3286 3.15192 10.7656C3.0983 10.5703 2.93745 10.4209 2.7383 10.3865L1.1183 10.1107C1.06851 10.1031 1.03404 10.0609 1.03404 10.0111V8.39879C1.03404 8.349 1.06851 8.30687 1.1183 8.29921L2.71532 8.03113C2.9183 7.99666 3.08298 7.8473 3.13277 7.64814C3.27447 7.08516 3.49277 6.54133 3.78767 6.03962C3.89107 5.86345 3.87958 5.64515 3.76086 5.48047L2.80724 4.14003C2.78043 4.10173 2.78426 4.04429 2.81873 4.00982L3.96001 2.86853C3.98682 2.84172 4.01362 2.83789 4.03277 2.83789C4.05575 2.83789 4.0749 2.84555 4.09022 2.85704L5.4115 3.79918C5.58001 3.9179 5.80214 3.92556 5.97831 3.82216C6.47618 3.52343 7.01618 3.29364 7.57916 3.14811C7.77448 3.09449 7.92384 2.93364 7.95831 2.73449L8.23406 1.11448C8.24172 1.06469 8.28385 1.03022 8.33363 1.03022H9.94598C9.99576 1.03022 10.0379 1.06469 10.0456 1.11448L10.3136 2.71151C10.3481 2.91449 10.4975 3.07917 10.6966 3.12896C11.2749 3.27449 11.8264 3.50045 12.3396 3.80301C12.5158 3.90641 12.7341 3.89875 12.9026 3.78003L14.2239 2.83023C14.243 2.81875 14.2622 2.81109 14.2813 2.81109C14.2966 2.81109 14.3273 2.81492 14.3541 2.84172L15.4953 3.98301C15.5298 4.01748 15.5336 4.0711 15.5068 4.11322L14.5609 5.44217C14.4422 5.60685 14.4345 5.82898 14.5379 6.00515C14.8366 6.50686 15.0588 7.04686 15.2043 7.60985C15.2541 7.809 15.4188 7.95836 15.6179 7.989L17.2264 8.26092C17.2762 8.26858 17.3107 8.3107 17.3107 8.36049V9.97284H17.3068V9.97284Z" transform="translate(2.83331 2.83337)" fill="#443B3B"/>
<path d="M4.31583 0C1.93439 0 0 1.93439 0 4.31583C0 6.69726 1.93439 8.63166 4.31583 8.63166C6.69726 8.63166 8.63166 6.69726 8.63166 4.31583C8.63166 1.93439 6.69726 0 4.31583 0ZM4.31583 7.50361C2.55691 7.50361 1.12805 6.07475 1.12805 4.31583C1.12805 2.55691 2.55691 1.12805 4.31583 1.12805C6.07475 1.12805 7.50361 2.55691 7.50361 4.31583C7.50361 6.07475 6.07475 7.50361 4.31583 7.50361Z" transform="translate(7.68622 7.68201)" fill="#443B3B"/>
</svg>
