<svg width="141" height="205" fill="none" xmlns="http://www.w3.org/2000/svg"><path fill="none" d="M.137 17.91L110.786.093l29.526 183.368-110.649 17.816z"/><path fill="none" d="M.137 17.91L110.786.093l29.526 183.368-110.649 17.816z"/><path fill="none" d="M.137 17.91L110.786.093l29.526 183.368-110.649 17.816z"/><path d="M103.005 93.665l-64.573 10.397c-5.752.926-9.664 6.34-8.738 12.092l6.171 38.327c.926 5.752 6.34 9.664 12.092 8.738l64.573-10.397c5.752-.927 9.664-6.34 8.738-12.092l-6.171-38.327c-.927-5.752-6.34-9.665-12.092-8.738z" fill="#7D7F7F"/><path d="M46.937 109.104c-2.336-.65-5.166 2.772-6.196 3.989-2.99 3.52-3.022 6.765-4.184 16.488-.901 7.539-1.795 13.564-1.927 22.535-.018 2.546-.096 5.858 1.892 9.098.584.97 2.679 4.372 6.355 4.96 3.676.588 7.046-1.844 8.763-3.975 3.864-4.798 1.08-10.671-.774-23.383-2.68-18.374-.157-28.661-3.93-29.712zM97.389 100.01c1.896-1.494 5.831.591 7.251 1.32 4.106 2.112 5.385 5.116 10.167 13.638 3.713 6.625 6.845 11.848 10.394 20.089 1.009 2.338 2.328 5.378 1.726 9.125-.178 1.123-.804 5.066-3.978 7.013-3.174 1.947-7.218.991-9.618-.323-5.407-2.976-5.076-9.44-8.227-21.9-4.539-18.019-10.801-26.546-7.715-28.962z" fill="#CECECE"/><path d="M66.915 148.174l-4.005.169c-5.879.248-10.443 5.215-10.195 11.094l1.023 24.241c.248 5.88 5.215 10.444 11.094 10.196l4.006-.169c5.879-.248 10.444-5.215 10.195-11.094l-1.023-24.242c-.248-5.879-5.215-10.444-11.095-10.195zM96.342 142.145l-3.806 1.256c-5.589 1.843-8.624 7.868-6.78 13.456l7.6 23.041c1.844 5.588 7.868 8.624 13.457 6.781l3.806-1.256c5.589-1.844 8.624-7.868 6.781-13.456l-7.601-23.042c-1.844-5.588-7.868-8.624-13.457-6.78z" fill="#CECECE"/><path d="M120.802 124.564c-.142 0-.282.022-.417.067-2.936.9-6.27 4.189-6.545 4.473-3.517 3.639-5.271 5.46-5.557 5.596a6.952 6.952 0 0 0-2.383 2.217s-.087.151-.155.311c-.068.161-.833 7.17 4.929 12.029.272.23 5.777 4.741 11.264 3.174.196-.057.359-.109.468-.148a7.22 7.22 0 0 0 5.346-5.605c.573-2.204.371-5.471-2.846-15.018-1.349-4.053-2.53-7.085-4.104-7.096zM34.068 140.666c.686-.495 1.182-.305 5.617.378 8.704 1.338 9.668 2.786 9.97 3.523.045.105.078.214.1.326a4.972 4.972 0 0 1-.114 2.241c-.552 1.876 3.716 6.407 3.478 10.98a8.228 8.228 0 0 1-1.829 4.568c-2.349 3.063-5.946 3.522-6.68 3.64a7.217 7.217 0 0 1-7.269-2.676c-1.285-1.502-3.172-4.494-4.081-14.729-.57-6.409-.041-7.635.808-8.251z" fill="#929293"/><path d="M117.762 58.306c2.275 28.487-18.006 53.405-45.127 57.772-27.12 4.367-54.198-12.925-60.98-40.687-7.415-30.36 11.87-61.247 43.74-66.379 31.87-5.131 59.877 18.14 62.367 49.294z" fill="#C6C6C6"/><path d="M110.624 146.29a34.233 34.233 0 0 1-2.586 2.759 44.846 44.846 0 0 0-14.437 7.517 101.92 101.92 0 0 1-10.681 2.306l-1.667.268c-3.882.625-7.195 1.159-10.16 1.427a44.912 44.912 0 0 0-17.54-2.843 29.552 29.552 0 0 1-4.37-2.823l-.093-3.229-1.172-44.436a8.437 8.437 0 0 1 6.99-9.673l31.662-5.099a8.44 8.44 0 0 1 9.674 6.99l12.95 42.177 1.43 4.659zM116.589 49.853a12.819 12.819 0 0 0-4.723-3.21l-1.935 7.33a9.138 9.138 0 0 1-2.695 10.234l-1.892 7.143a13.226 13.226 0 0 0 7.479-1.166 12.873 12.873 0 0 0 7.005-9.224 12.884 12.884 0 0 0-3.237-11.12l-.002.013zM10.705 69.894a12.822 12.822 0 0 1 3.476-4.53l4.139 6.351a9.14 9.14 0 0 0 5.779 8.87l4.04 6.188a13.228 13.228 0 0 1-7.468 1.241 12.878 12.878 0 0 1-9.966-18.12z" fill="#C6C6C6"/><path d="M48.746 128.832c-.735.452-1.474-.472-4.891-1.709-3.418-1.236-4.596-1.042-5.268-.861-1.27.345-1.556.956-2.016.752-1.376-.586-.523-6.327 1.723-10.535a9.461 9.461 0 0 1 2.863-3.453 7.174 7.174 0 0 1 3.199-1.37c.542-.087 2.83-.421 4.434.996.12.105.202.19.218.208 1.189 1.254 1.043 3.162.91 4.671-.42 4.696-.561 4.744-.66 6.517-.178 3.221.22 4.337-.512 4.784zM102.623 120.225c.768.261 1.353-.594 5.013-3.372 2.921-2.218 4.185-2.383 4.731-2.471 1.466-.236 2.1.089 2.458-.396.8-1.052-1.372-3.95-3.157-6.33-1.9-2.536-2.883-3.81-4.621-4.812-1.252-.713-3.657-2.087-6.168-1.144-1.435.539-2.906 1.831-3.28 3.52-.19.886-.006 1.365 1.155 4.516 1.359 3.691 2.042 5.539 2.323 6.464.895 2.903.836 3.784 1.546 4.025z" fill="#BCBCBC"/><path d="M38.133 105.205L105.73 94.32a5.434 5.434 0 0 1 6.23 4.502l.075.466a5.432 5.432 0 0 1-4.498 6.23l-67.601 10.885a5.433 5.433 0 0 1-6.225-4.499l-.075-.466a5.433 5.433 0 0 1 4.497-6.233z" fill="#A0A0A5"/><path d="M51.315 170.799c-1.886 1.748-1.157 5.264.145 11.517 1.34 6.434 2.006 9.648 4.861 11.611 2.855 1.964 6.048 1.488 10.818.823 4.635-.648 9.864-1.379 12.377-5.412 1.234-1.977 1.277-3.886 1.36-7.485.095-4.717.201-8.781-2.161-10.765-2.797-2.344-5.936.802-14.433.615-7.763-.169-10.796-2.92-12.967-.904z" fill="#929293" filter="url(#filter0_d)"/><path d="M116.099 159.94c2.339 1.068 2.751 4.635 3.478 10.98.748 6.53 1.123 9.79-.971 12.551-2.094 2.761-5.275 3.311-10.012 4.177-4.605.839-9.8 1.787-13.451-1.254-1.792-1.489-2.432-3.288-3.64-6.679-1.572-4.449-2.948-8.274-1.328-10.899 1.92-3.104 5.887-1.102 13.896-3.947 7.314-2.597 9.334-6.162 12.028-4.929z" fill="#929293" filter="url(#filter1_d)"/><path d="M50.865 170.658a4.884 4.884 0 0 0-1.398 1.935 5.906 5.906 0 0 0 .872 5.415c1.852 2.266 5.616.878 14.158-.142 11.22-1.346 16.065-.484 17.126-3.185.566-1.447-.287-3.16-1.11-4.233-2.047-2.632-5.804-.616-13.329-.499-7.728.099-13.32-1.902-16.32.709zM117 160.009c.75.299 1.415.779 1.934 1.398a5.903 5.903 0 0 1 .872 5.416c-1.047 2.733-5.057 2.596-13.487 4.308-11.076 2.245-15.405 4.584-17.26 2.352-.992-1.195-.72-3.089-.276-4.366 1.118-3.142 5.318-2.408 12.5-4.658 7.369-2.332 12.041-5.987 15.717-4.45zM112.592 147.896c-1.537.31-3.056.697-4.553 1.161a44.844 44.844 0 0 0-14.437 7.517 45.164 45.164 0 0 0-6.412 6.098l-.833.134c-.251-.045-2.648-.518-3.386-2.447a3.225 3.225 0 0 1-.201-1.25l.149-.242a33.633 33.633 0 0 1 3.346-4.594c5.267-6.093 11.343-8.763 14.207-9.981a43.075 43.075 0 0 1 8.722-2.661c.487-.079.979-.183 1.491-.266a5.225 5.225 0 0 1 1.907 6.531zM81.683 160.567c-.095 2.062-2.222 3.264-2.446 3.385l-.833.135a45.183 45.183 0 0 0-7.295-3.527 44.911 44.911 0 0 0-17.54-2.843 45.689 45.689 0 0 0-3.917.314 5.217 5.217 0 0 1-.252-6.793 43.43 43.43 0 0 1 10.616-.428c3.102.258 9.708.886 16.622 5.017a34.72 34.72 0 0 1 4.624 3.316l.213.179c.15.397.222.82.209 1.245z" fill="#A0A0A5"/><path d="M100.184 139.851l-42.493 6.842 1.2-28.829L90 112.855l10.185 26.996z" fill="#DEDFE0"/><path opacity=".95" d="M111.514 70.33c-.038.349-.081.697-.132 1.043a28.58 28.58 0 0 1-3.971 11.12c-7.522 12.024-22.46 14.271-37.734 16.538-18.543 2.751-29.472 3.463-38.52-4.26a30.482 30.482 0 0 1-7.424-9.742 35.862 35.862 0 0 1-3.003-8.855 36.47 36.47 0 0 1-.566-3.862 35.06 35.06 0 0 1 .224-8.38 30.752 30.752 0 0 1 3.33-10.1c.212-.39.432-.775.67-1.156 4.674-7.732 11.876-11.315 15.366-12.757a103.702 103.702 0 0 1 16.327-4.09c16.265-2.688 32.93-5.44 44.553 4.57a30.045 30.045 0 0 1 6.768 8.535c.23.425.449.856.661 1.292a37.302 37.302 0 0 1 3.451 20.105z" fill="#DCF8FF"/><path d="M109.684 59.21a33.708 33.708 0 0 1-4.46 19.096 33.115 33.115 0 0 1-2.191 3.301c-4.612 6.128-11.239 10.444-18.754 11.654l-26.495 4.266c-11.095 1.786-22.475-3.463-29.369-12.884a33.695 33.695 0 0 1-5.437-11.472 29.586 29.586 0 0 1-.672-3.136c-.738-4.583-1.113-13.07 3.882-21.414A31.61 31.61 0 0 1 40.89 35.936a116.544 116.544 0 0 1 9.214-2.766c1.933-.495 3.965-.963 6.086-1.407.828-.163 1.633-.318 2.489-.469l.366-.06 1.563-.25.479-.078a100.17 100.17 0 0 1 6.7-.856 117.07 117.07 0 0 1 13.16-.56 31.592 31.592 0 0 1 17.991 7.421c9.789 8.45 10.628 20.108 10.745 22.298z" fill="#DCF8FF"/><path opacity=".8" d="M74.804 141.629l3.826-25.321a.093.093 0 0 0-.078-.106l-.075-.011a.092.092 0 0 0-.106.078l-3.826 25.321a.093.093 0 0 0 .078.106l.075.011a.092.092 0 0 0 .106-.078z" fill="#DDD"/><path d="M83.896 128.053a7.41 7.41 0 1 0-14.634 2.343 7.41 7.41 0 0 0 14.634-2.343z" fill="#8C39B6"/><path opacity=".8" d="M88.572 121.687L64.65 136.419a.093.093 0 0 0-.03.128l.053.086a.093.093 0 0 0 .128.031l23.922-14.733a.093.093 0 0 0 .03-.128l-.053-.086a.093.093 0 0 0-.128-.03z" fill="#DDD"/><path d="M90.828 120.563l-28.266 17.408a.148.148 0 0 0-.048.203l.1.162a.148.148 0 0 0 .202.048l28.266-17.407a.149.149 0 0 0 .048-.204l-.1-.161a.148.148 0 0 0-.203-.049z" fill="#fff"/><path d="M34.269 84.897a12.917 12.917 0 0 1-9.068.7 11.2 11.2 0 0 1-1.472-.567 35.868 35.868 0 0 1-3.003-8.855 5.92 5.92 0 0 1-.174-.468 8.415 8.415 0 0 1-.392-3.395 35.061 35.061 0 0 1 .224-8.378 9.988 9.988 0 0 1 9.319-2.617l4.566 23.58z" fill="#5E4034"/><path d="M33.6 83.107a14.347 14.347 0 0 1-8.364-2.072c-1.175-.739-3.424-2.15-4.505-4.857a5.92 5.92 0 0 1-.174-.468 8.415 8.415 0 0 1-.392-3.394c.022-.249.057-.495.107-.74.056-.26 1.036-4.637 4.816-5.712a6.565 6.565 0 0 1 3.868.134L33.6 83.107z" fill="#F4C6A3"/><path d="M111.514 70.33A11.367 11.367 0 0 1 109.645 72a12.06 12.06 0 0 1-1.978 1.144 13.303 13.303 0 0 1-6.847 1.038l-3.079-23.82a10.039 10.039 0 0 1 10.104-.216l.224.118a37.3 37.3 0 0 1 3.445 20.068z" fill="#5E4034"/><path d="M99.948 54.563a6.563 6.563 0 0 1 3.609-1.342c3.927-.167 6.233 3.697 6.366 3.915a8.24 8.24 0 0 1 1.027 4.015c-.001 3.176-1.837 5.395-2.775 6.524a14.344 14.344 0 0 1-7.291 4.594l-.936-17.707z" fill="#F4C6A3"/><path d="M105.493 65.616c.345 2.7.948 7.429-.268 12.698a24.955 24.955 0 0 1-2.978 7.382c-3.71 6.154-9.115 9.007-13.205 11.183-5.735 3.06-10.542 3.916-17.544 5.18-7.003 1.264-11.629 2.103-17.991 1.29-4.566-.59-10.64-1.364-16.322-5.809-4.966-3.902-7.442-8.897-8.796-12.902-.64-1.871-1.035-3.53-1.326-4.757a40.048 40.048 0 0 1 .542-19.38c4.35-15.903 16.8-24.032 20.45-26.201.695-.411 1.378-.79 2.047-1.146 1.934-.495 3.965-.964 6.086-1.408.829-.163 1.633-.318 2.49-.469l.366-.059 1.562-.251.479-.077a100.11 100.11 0 0 1 6.7-.857 43.08 43.08 0 0 1 2.028.302c3.8.67 18.559 3.777 28.377 17.318a40.124 40.124 0 0 1 7.303 17.963z" fill="#5E4034"/><path d="M59.585 32.853a76.419 76.419 0 0 1-3.392-1.078c.828-.163 1.633-.318 2.489-.469.092.174.189.35.294.53.239.444.462.793.609 1.017zM60.591 30.982c-.534.877-.726 1.117-.961 1.06-.236-.055-.438-.356-.599-.796.515-.092 1.035-.18 1.56-.264z" fill="#5E4034"/><path d="M96.253 63.522c-.55-1.9-1.882-6.382-5.79-10.321-.894-.908-8.424-8.333-15.523-5.84-3.892 1.367-6.324 5.242-8.617 8.919-.677 1.105-1.353 2.402-1.353 2.402-.49.933-.788 1.605-.917 1.891-.173.387-.312.717-.413.968-.184-.162-.429-.38-.721-.631-.595-.507-1.06-.868-1.31-1.072-1.114-.867-2.352-1.758-2.693-1.968-3.776-2.563-7.631-5.323-11.322-5.015-6.842.584-10.61 9.329-11.36 11.073a25.049 25.049 0 0 0-1.769 12.342c.195 2.166.919 9.208 6.185 15.079 3.647 4.067 7.683 5.563 10.84 6.691a33.992 33.992 0 0 0 19.298.91 34.521 34.521 0 0 0 17.258-8.335c2.375-2.156 5.542-5.106 7.549-10.293 3.055-7.886 1.148-15.11.658-16.8z" fill="#F4C6A3"/><path opacity=".96" d="M66.485 73.901c-6.956 1.073-11.427 6.7-12.568 8.242-4.811 6.562-4.318 13.633-4.142 15.391 3.495 1.318 11.597 3.83 21.218 1.712 8.483-1.865 14.462-6.512 16.626-8.233a43.618 43.618 0 0 0 1.881-1.585C84.87 78.741 75.162 72.581 66.485 73.901z" fill="#F9E4C7"/><path d="M54.861 78.05c2.1-.337 3.422-2.98 2.952-5.902-.47-2.922-2.555-5.017-4.656-4.679-2.1.339-3.422 2.982-2.951 5.904.47 2.922 2.554 5.016 4.655 4.678z" fill="#140000"/><path d="M55.125 73.901c.42-.068.68-.63.58-1.256-.101-.626-.524-1.078-.945-1.01-.421.068-.68.63-.58 1.256.1.625.524 1.078.945 1.01z" fill="#fff"/><path d="M80.4 67.677c.79 2.865-.241 5.62-2.292 6.186-2.05.565-4.35-1.296-5.138-4.148-.788-2.852.24-5.62 2.29-6.185 2.05-.566 4.355 1.294 5.14 4.147z" fill="#140000"/><path d="M77.477 69.363c-.007-.634-.358-1.144-.784-1.14-.426.004-.767.522-.76 1.155.006.634.357 1.145.784 1.14.426-.004.766-.522.76-1.155z" fill="#fff"/><path d="M67.26 82.987c-.336.571-1.638.443-2.88-.293-1.243-.736-1.998-1.785-1.662-2.352.336-.567 1.638-.444 2.88.292 1.243.736 1.997 1.782 1.662 2.353zM67.731 82.757c-.58-.398-.358-1.72.502-2.962.86-1.24 2.025-1.92 2.601-1.525.576.394.358 1.72-.502 2.961-.86 1.241-2.02 1.924-2.6 1.526z" fill="#140000"/><path opacity=".81" d="M72.621 88.599c-.236-.01-.44 1.224-1.478 2.204a5.486 5.486 0 0 1-2.867 1.282c-2.69.523-4.512-.603-4.743-.258-.163.236.607.826.743.927a4.92 4.92 0 0 0 4.605.883 6.212 6.212 0 0 0 2.222-1.276 5.236 5.236 0 0 0 1.478-2.205c.248-.745.234-1.55.04-1.557z" fill="#140000"/><path opacity=".27" d="M112.66 61.816a39.17 39.17 0 0 1-4.56 21.425 36.006 36.006 0 0 1-2.299 3.69c-4.85 6.83-11.842 11.61-19.844 12.898l-28.158 4.534c-8.853 1.425-17.91-1.608-25.023-7.712a37.18 37.18 0 0 1-4.227-4.277c-.386-.455-.76-.92-1.123-1.4a43.49 43.49 0 0 1-1.008-1.377 39.666 39.666 0 0 1-5.901-12.944l-.012-.07c-.16-.62-.459-1.816-.724-3.462-.831-5.165-1.31-14.692 3.92-24.022A33.263 33.263 0 0 1 39.226 34.99a118.564 118.564 0 0 1 9.771-3.018l.48-.125a125.96 125.96 0 0 1 5.982-1.39c.861-.173 1.736-.344 2.625-.504l.391-.063c.556-.09 1.111-.18 1.667-.268l.508-.082c2.45-.395 4.831-.68 7.122-.895a96.675 96.675 0 0 1 2.006-.173c.738-.06 1.466-.108 2.181-.15a115.37 115.37 0 0 1 7.275-.21c.855.003 1.711.01 2.542.018a33.255 33.255 0 0 1 19.223 8.513c10.505 9.604 11.513 22.713 11.661 25.172z" fill="#DCF8FF"/><path opacity=".53" d="M69.773 28.469L27.426 90.974c-.346-.449-.68-.908-1.008-1.377a39.664 39.664 0 0 1-5.901-12.944l-.012-.071a38.83 38.83 0 0 1-.29-1.543l29.273-43.18c1.903-.494 3.902-.957 5.982-1.39a134.66 134.66 0 0 1 2.624-.504l.392-.063 1.666-.268.508-.082c2.45-.395 4.832-.68 7.122-.895a44.734 44.734 0 0 1 1.991-.188zM79.23 28.109L32.775 96.65a37.188 37.188 0 0 1-4.227-4.277l43.418-64.057c2.54-.157 4.974-.216 7.262-.208z" fill="#fff"/><defs><filter id="filter0_d" x="45.409" y="165.848" width="42.003" height="39.108" filterUnits="userSpaceOnUse" color-interpolation-filters="sRGB"><feFlood flood-opacity="0" result="BackgroundImageFix"/><feColorMatrix in="SourceAlpha" values="0 0 0 0 0 0 0 0 0 0 0 0 0 0 0 0 0 0 255 0"/><feOffset dy="4"/><feGaussianBlur stdDeviation="2"/><feColorMatrix values="0 0 0 0 0 0 0 0 0 0 0 0 0 0 0 0 0 0 0.35 0"/><feBlend in2="BackgroundImageFix" result="effect1_dropShadow"/><feBlend in="SourceGraphic" in2="effect1_dropShadow" result="shape"/></filter><filter id="filter1_d" x="84.093" y="159.192" width="42.003" height="39.108" filterUnits="userSpaceOnUse" color-interpolation-filters="sRGB"><feFlood flood-opacity="0" result="BackgroundImageFix"/><feColorMatrix in="SourceAlpha" values="0 0 0 0 0 0 0 0 0 0 0 0 0 0 0 0 0 0 255 0"/><feOffset dy="4"/><feGaussianBlur stdDeviation="2"/><feColorMatrix values="0 0 0 0 0 0 0 0 0 0 0 0 0 0 0 0 0 0 0.35 0"/><feBlend in2="BackgroundImageFix" result="effect1_dropShadow"/><feBlend in="SourceGraphic" in2="effect1_dropShadow" result="shape"/></filter></defs></svg>